<svg viewBox="6.781 5.916 153.414 131.611" width="153.41400146484375" height="131.61099243164062">
  <defs>
    <style type="text/css">
      .st0 {
        fill: #FFFFFF;
      }

      .st1 {
        fill: #FF8080;
      }

      .st2 {
        fill: #79C0B8;
      }

      .st3 {
        fill: #759ECA;
      }

      .st4 {
        fill: #144C87;
      }
    </style>
  </defs>
  <g transform="matrix(1, 0, 0, 1, -71.763954, -23.663506)">
    <circle cx="134" cy="74" r="28" stroke-width="3" class="st1 isotipo-1"></circle>
    <g>
      <path class="st3 isotipo-2"
        d="M178.94,109c4.44,1.67,9.26,0.79,13.4-1.28c4.1-2.05,7.26-5.41,10.52-8.54c2.99-2.86,6.28-5.81,10.4-6.8    c3.25-0.78,6.88-0.33,9.73,1.45c3.62,2.25,4.46,6.38,4.43,10.39c-0.03,4.31-1.19,8.72-3.81,12.2c-5.2,6.93-15.04,8.38-23.13,7.89    c-4.88-0.3-10.14-1.6-13.89-4.91c-3.33-2.93-5.73-7.44-4.9-11.98c0.22-1.19-0.33-2.43-1.57-2.77c-1.09-0.3-2.55,0.37-2.77,1.57    c-0.93,5.08,0.64,9.99,3.82,13.99c3.21,4.04,7.99,6.53,12.95,7.7c5,1.17,10.26,1.23,15.32,0.53c4.71-0.65,9.45-2.15,13.31-5    c4.16-3.07,7-7.46,8.28-12.46c1.3-5.04,1.45-11.13-0.94-15.87c-4.13-8.2-15.35-9.27-22.69-5.21c-4.98,2.75-8.61,7.23-12.85,10.91    c-3.93,3.41-9.32,5.78-14.45,3.85c-1.14-0.43-2.47,0.48-2.77,1.57C177.03,107.5,177.8,108.57,178.94,109L178.94,109z">
      </path>
      <g>
        <g>
          <path class="st4 isotipo-3"
            d="M200.73,79.36c-1.28-2.23-2.68-4.33-4.12-6.46c-3.32-4.9-6.37-9.24-9.33-13.28      c-1.55-2.1-3.14-4.28-4.85-6.35c-1.71-2.07-3.55-4.12-5.48-6.08c-1.95-1.99-4.15-3.76-6.24-5.37c-1.25-0.96-2.32-1.74-3.36-2.43      c-1.17-0.78-2.36-1.52-3.56-2.24c-2.27-1.35-4.71-2.77-7.28-3.86c-0.61-0.26-1.22-0.5-1.85-0.72l-1.45-0.49      c-0.2-0.08-0.42-0.15-0.63-0.21l-0.17-0.05c-2.37-0.75-4.99-1.3-7.99-1.68c-2.56-0.32-5.19-0.51-8.03-0.55      c-3.06-0.05-5.78,0.07-8.3,0.38c-3.13,0.38-5.85,0.95-8.31,1.72c-1.31,0.41-2.58,0.88-3.76,1.37l-0.21,0.09      c-0.57,0.24-1.14,0.48-1.7,0.74c-0.64,0.31-1.27,0.62-1.91,0.95c-2.23,1.13-4.42,2.59-6.91,4.6c-0.48,0.39-0.94,0.8-1.4,1.22      l-0.16,0.14c-0.5,0.45-0.98,0.92-1.46,1.4c-0.86,0.87-1.76,1.86-2.82,3.1c-1.65,1.93-3.23,4.15-4.98,7      c-0.68,1.11-1.31,2.27-1.88,3.45c-0.55,1.14-1.18,2.49-1.75,3.9c-0.5,1.24-0.98,2.54-1.46,3.97c-0.4,1.2-0.77,2.53-1.15,4.2      c-0.54,2.37-0.86,4.96-1.01,8.14c-0.13,2.89-0.03,5.71,0.31,8.38c0.34,2.69,0.98,5.46,1.9,8.24c0.49,1.47,1.12,2.85,1.62,3.89      c0.61,1.27,1.31,2.48,2.07,3.62c0.7,1.03,1.55,2.09,2.59,3.24c0.51,0.56,1.02,1.11,1.55,1.64c0.51,0.52,1.08,0.99,1.62,1.42      c0.98,0.78,2.11,1.51,3.54,2.29c1.29,0.7,2.64,1.25,3.99,1.63c1.37,0.38,2.8,0.65,4.26,0.79c0.71,0.07,1.41,0.06,2.06,0.05      c0.68-0.02,1.36-0.06,2.03-0.12c1.5-0.14,2.85-0.39,4.14-0.76c1.29-0.37,2.6-0.86,3.99-1.49c1.25-0.57,2.49-1.3,3.71-2.18      c0.52-0.38,0.97-0.71,1.39-1.08c0.31,0.18,0.63,0.34,0.94,0.5l0.3,0.16c0.55,0.29,1.16,0.55,1.92,0.85      c1.25,0.48,2.55,0.86,3.89,1.13c1.68,0.34,2.99,0.53,4.4,0.63c1.38,0.1,2.76,0.11,4.15,0.05c1.24-0.05,2.69-0.13,4.12-0.45      c0.74-0.17,1.48-0.35,2.22-0.55c0.68-0.19,1.36-0.44,2.02-0.7c0.63-0.24,1.27-0.53,1.95-0.88c0.57-0.29,1.17-0.65,1.89-1.13      c0.56-0.37,1.11-0.8,1.79-1.37c0.3-0.25,0.59-0.51,0.87-0.78l0.23-0.22c0.17-0.16,0.35-0.33,0.51-0.5l0.22-0.23      c0.2-0.22,0.41-0.44,0.6-0.67l0.64-0.77c0.4-0.47,0.75-0.98,1.09-1.5l0.15-0.22c0.41-0.6,0.74-1.22,1.11-1.93      c0.32-0.61,0.56-1.24,0.84-1.99c0.06-0.17,0.12-0.34,0.17-0.51l0.09-0.31c0.04-0.11,0.07-0.22,0.1-0.34l0.06-0.25      c0.06-0.24,0.12-0.48,0.17-0.72l0.05-0.26c0.06-0.33,0.12-0.66,0.16-0.99c0.04-0.35,0.07-0.7,0.09-1.06      c0.08-1.42-0.06-2.79-0.28-4.4c-0.17-1.26-0.47-2.59-0.92-4.18c-0.01-0.04-0.03-0.09-0.04-0.13c0.52-0.2,1.02-0.45,1.49-0.73      c0.75-0.44,1.39-0.88,1.95-1.36c0.57-0.48,1.1-1.04,1.68-1.75c0.49-0.6,0.85-1.26,1.14-1.83c0.23-0.45,0.43-0.94,0.59-1.48      c0.11-0.35,0.2-0.7,0.28-1.21c0.03-0.14,0.05-0.29,0.07-0.43c0.08-0.87,0.08-1.6,0.02-2.3c-0.06-0.69-0.18-1.4-0.35-2.17      c-0.33-1.48-0.87-2.84-1.37-3.98c-0.57-1.3-1.22-2.53-1.93-3.67c-0.82-1.3-1.64-2.43-2.51-3.48c-0.93-1.11-1.92-2.15-2.94-3.08      c-0.93-0.85-1.99-1.66-3.34-2.55c-1.14-0.76-2.37-1.48-3.76-2.2c-1.18-0.61-2.49-1.16-4-1.66c-1.41-0.47-2.84-0.81-4.26-1.01      c-1.67-0.24-3.12-0.34-4.46-0.32l-0.41,0c-0.61,0.01-1.21,0.01-1.81,0.06c-0.76,0.06-1.51,0.13-2.26,0.22      c-1.22,0.14-2.55,0.42-4.17,0.87c-0.23,0.07-0.46,0.14-0.69,0.22l-0.27,0.09c-0.36,0.12-0.72,0.26-1.06,0.41      c-0.64,0.29-1.31,0.6-1.96,0.98c-0.34,0.2-0.67,0.42-1,0.64c-0.29,0.2-0.59,0.41-0.86,0.64c-0.31,0.27-0.61,0.53-0.9,0.82      c-0.23,0.23-0.45,0.47-0.67,0.72c-0.29,0.33-0.54,0.7-0.78,1.07c-0.34,0.52-0.61,1.06-0.82,1.6c-0.06,0.16-0.12,0.32-0.17,0.48      c-0.09-0.01-0.18-0.03-0.26-0.04c-0.64-0.09-1.32-0.13-2.16-0.14c-0.69-0.01-1.38,0-2.08,0.05l-0.32,0.02      c-0.65,0.05-1.32,0.09-1.99,0.23c-1.66,0.34-2.97,0.76-4.25,1.38c-0.3,0.14-0.59,0.29-0.88,0.45c-0.31,0.18-0.62,0.36-0.92,0.55      c-0.59,0.37-1.17,0.79-1.72,1.23c-0.48,0.38-0.95,0.82-1.55,1.42c-0.59,0.6-1.02,1.08-1.4,1.56c-0.81,1.05-1.72,2.29-2.32,3.71      c-0.28,0.66-0.54,1.33-0.75,2.01c-0.23,0.71-0.4,1.4-0.53,2.11c-0.27,1.42-0.4,2.86-0.4,4.28c0,1.3,0.13,2.66,0.4,4.15      c0.12,0.63,0.28,1.3,0.5,2.07c0.17,0.59,0.35,1.19,0.63,1.77c0.52,1.11,1.84,1.61,2.94,1.11c0.54-0.24,0.97-0.71,1.18-1.27      c0.21-0.56,0.18-1.16-0.06-1.69c-0.04-0.08-0.07-0.17-0.1-0.24c-0.22-0.6-0.41-1.28-0.6-2.03c-0.16-0.77-0.28-1.57-0.37-2.43      c-0.06-0.73-0.07-1.46-0.06-2.17c0.04-0.74,0.12-1.54,0.27-2.49c0.06-0.31,0.11-0.62,0.19-0.93c0.08-0.32,0.17-0.63,0.26-0.9      c0.2-0.55,0.4-1.1,0.61-1.6c0.23-0.47,0.48-0.92,0.73-1.33c0.44-0.64,0.9-1.26,1.37-1.83c0.42-0.45,0.85-0.89,1.27-1.3      c0.43-0.38,0.88-0.74,1.32-1.06c0.48-0.32,0.97-0.63,1.42-0.89c0.53-0.25,1.06-0.49,1.56-0.69c0.52-0.17,1.04-0.33,1.52-0.45      c0.57-0.11,1.13-0.19,1.76-0.26c0.46-0.04,0.92-0.07,1.38-0.08c0.5-0.01,0.99,0,1.46,0.01c0.38,0.02,0.76,0.06,1.13,0.1      c-0.01,0.59,0.03,1.19,0.1,1.77c0.09,0.72,0.27,1.45,0.53,2.18c0.39,1.07,0.86,2.19,1.66,3.12c0.7,0.82,1.46,1.42,2.31,1.83      c0.86,0.42,1.78,0.62,2.59,0.57c0.94-0.06,1.72-0.31,2.38-0.76c0.7-0.48,1.25-1.16,1.5-1.87c0.19-0.54,0.29-1.01,0.31-1.46      c0.02-0.4,0-0.76-0.05-1.11c-0.07-0.45-0.17-0.85-0.3-1.21c-0.27-0.76-0.62-1.46-1.08-2.13c-0.93-1.36-2.21-2.35-3.23-3.06      c-0.54-0.38-1.12-0.69-1.64-0.95c0.06-0.16,0.12-0.32,0.18-0.46c0.07-0.15,0.15-0.29,0.2-0.39c0.16-0.24,0.33-0.48,0.47-0.67      c0.22-0.25,0.45-0.49,0.65-0.69c0.29-0.25,0.58-0.49,0.84-0.69c0.37-0.24,0.73-0.48,1.07-0.68c0.34-0.18,0.68-0.35,1.04-0.51      c0.29-0.13,0.59-0.24,0.87-0.35c0.45-0.15,0.89-0.29,1.35-0.42c0.35-0.1,0.69-0.18,1.05-0.26c0.51-0.1,1.01-0.19,1.52-0.27      c0.45-0.07,0.9-0.12,1.34-0.17l-0.1-0.81c0,0,0,0,0,0l0.26,0.8c0.62-0.05,1.23-0.1,1.85-0.11c0.7-0.01,1.4-0.01,2.06,0      c0.52,0.03,1.04,0.06,1.55,0.11c0.49,0.05,0.98,0.12,1.45,0.18c0.49,0.09,0.99,0.19,1.48,0.3c0.46,0.11,0.92,0.24,1.38,0.37      c0.48,0.16,0.96,0.32,1.43,0.5c0.45,0.17,0.89,0.36,1.36,0.56c0.71,0.34,1.42,0.69,2.11,1.07c0.71,0.4,1.39,0.82,2.06,1.25      l0.26,0.17c0.37,0.24,0.75,0.49,1.1,0.76c0.43,0.33,0.86,0.67,1.25,1c0.34,0.31,0.68,0.62,1.01,0.94      c0.32,0.31,0.63,0.64,0.92,0.95l0.14,0.15c0.35,0.39,0.69,0.78,1.01,1.19c0.36,0.46,0.71,0.93,1.05,1.38l0.15,0.22      c0.26,0.39,0.53,0.78,0.77,1.18c0.27,0.46,0.54,0.92,0.79,1.37c0.26,0.5,0.51,1.01,0.74,1.53c0.23,0.53,0.45,1.07,0.64,1.57      c0.18,0.52,0.34,1.04,0.47,1.54c0.13,0.63,0.24,1.25,0.3,1.83c0.01,0.31,0.02,0.61,0.02,0.85c-0.03,0.29-0.06,0.57-0.1,0.8      c-0.04,0.19-0.09,0.37-0.13,0.52c-0.08,0.24-0.18,0.47-0.25,0.64c-0.15,0.28-0.3,0.55-0.42,0.77c-0.19,0.26-0.38,0.51-0.54,0.72      c-0.22,0.24-0.44,0.46-0.63,0.65c-0.25,0.21-0.5,0.41-0.71,0.57c-0.27,0.18-0.55,0.35-0.78,0.49c-0.27,0.14-0.54,0.26-0.8,0.38      c-0.52-1.23-1.09-2.35-1.69-3.35c-0.87-1.46-1.7-2.57-2.59-3.49c-0.27-0.28-0.55-0.56-0.83-0.82c-0.29-0.27-0.59-0.52-0.9-0.77      c-0.48-0.39-1.04-0.77-1.78-1.19c-1.4-0.8-2.85-1.34-4.3-1.6c-0.85-0.16-1.6-0.22-2.31-0.21c-1.1,0.02-2.12,0.21-3.05,0.54      c-0.99,0.36-1.83,0.91-2.49,1.64c-0.56,0.61-0.95,1.4-1.15,2.27c-0.28,1.26-0.05,2.65,0.69,4.13c1.16,2.34,3.34,4.3,6.47,5.84      c1.23,0.6,2.57,1.1,4,1.49c1.32,0.36,2.69,0.59,4.19,0.71c0.15,0.01,0.29,0.02,0.54,0.02c0.2,0.02,0.41,0.02,0.72,0.02      c0.35,0,0.72-0.01,1.09-0.02c0.19-0.01,0.39-0.02,0.58-0.03c0.23,0.76,0.44,1.55,0.63,2.33c0.19,0.97,0.35,1.97,0.47,3.02      c0.05,0.64,0.08,1.28,0.08,1.87c-0.03,0.46-0.07,0.92-0.11,1.32c-0.06,0.36-0.13,0.71-0.22,1.07c-0.08,0.34-0.19,0.67-0.28,0.96      l-0.1,0.29c-0.06,0.18-0.13,0.36-0.21,0.53l-0.43,0.92c-0.09,0.18-0.18,0.35-0.28,0.52l-0.44,0.73      c-0.27,0.4-0.54,0.79-0.83,1.17c-0.25,0.33-0.52,0.65-0.77,0.94l-0.22,0.25c-0.14,0.15-0.28,0.31-0.43,0.46l-0.65,0.64      c-0.29,0.26-0.57,0.51-0.87,0.76c-0.27,0.23-0.55,0.45-0.79,0.63c-0.59,0.39-1.19,0.76-1.78,1.1c-0.31,0.16-0.63,0.31-0.95,0.46      c-0.28,0.12-0.57,0.23-0.86,0.34l-0.34,0.12c-0.35,0.12-0.69,0.24-1.04,0.34c-0.45,0.13-0.9,0.24-1.34,0.35      c-0.42,0.09-0.85,0.19-1.28,0.25c-0.45,0.07-0.89,0.12-1.38,0.16c-0.72,0.04-1.45,0.08-2.17,0.1c-0.66,0.02-1.32,0.01-1.94-0.01      c-1.22-0.09-2.29-0.2-3.24-0.34c-1.33-0.24-2.5-0.52-3.55-0.83c-0.67-0.22-1.32-0.47-1.94-0.73c-0.23-0.11-0.46-0.23-0.68-0.34      c0.43-0.57,0.84-1.17,1.22-1.77c0.4-0.65,0.75-1.29,1.05-1.94c0.26-0.56,0.5-1.17,0.77-1.98c0.22-0.64,0.4-1.32,0.55-2.02      c0.15-0.7,0.3-1.46,0.36-2.22c0.1-1.3,0.15-2.84-0.18-4.39c-0.14-0.67-0.34-1.46-0.7-2.19c-0.36-0.74-0.77-1.39-1.22-1.97      c-0.96-1.22-2.4-2.03-3.84-2.15c-0.52-0.04-1.08-0.02-1.57,0.08c-0.35,0.07-0.72,0.15-1.09,0.31c-0.3,0.13-0.58,0.3-0.85,0.47      c-0.61,0.39-1.19,0.92-1.78,1.63c-0.46,0.55-0.87,1.15-1.24,1.79c-0.68,1.18-1.19,2.53-1.51,4.02      c-0.32,1.45-0.46,2.88-0.41,4.25c0.05,1.66,0.38,3.23,0.93,4.56c0.25,0.6,0.57,1.31,0.97,1.96c0.44,0.71,0.96,1.32,1.37,1.77      c0.11,0.13,0.23,0.25,0.34,0.37c-0.16,0.12-0.31,0.23-0.47,0.35c-0.69,0.47-1.4,0.91-2.14,1.31c-0.83,0.41-1.67,0.77-2.57,1.11      c-0.76,0.27-1.58,0.51-2.47,0.73c-0.76,0.16-1.58,0.28-2.46,0.37c-0.74,0.05-1.72,0.11-2.66,0.09c-0.68-0.04-1.35-0.13-2-0.23      c-0.43-0.08-0.86-0.16-1.28-0.27c-0.38-0.09-0.76-0.21-1.12-0.32c-0.63-0.21-1.25-0.45-1.82-0.71      c-0.83-0.42-1.64-0.87-2.39-1.34c-0.58-0.39-1.15-0.8-1.68-1.23c-0.3-0.26-0.61-0.52-0.89-0.81c-0.34-0.35-0.67-0.69-0.99-1.04      c-0.96-1.06-1.79-2.08-2.54-3.11c-0.44-0.65-0.87-1.36-1.33-2.2c-0.28-0.56-0.56-1.13-0.83-1.7c-0.27-0.58-0.51-1.17-0.73-1.74      c-0.48-1.33-0.91-2.77-1.34-4.5c-0.18-0.78-0.35-1.57-0.47-2.36c-0.14-0.89-0.25-1.77-0.34-2.65c-0.09-1.06-0.15-2.13-0.18-3.19      c-0.03-1,0-2,0.04-2.99c0.1-2.16,0.29-4.08,0.57-5.85c0.32-1.72,0.76-3.47,1.33-5.32c0.36-1.06,0.72-2.13,1.14-3.17      c0.43-1.08,0.89-2.15,1.36-3.19c0.43-0.89,0.87-1.78,1.34-2.65c0.46-0.85,0.97-1.69,1.46-2.5c0.61-0.93,1.23-1.85,1.87-2.76      c0.66-0.93,1.38-1.82,2.07-2.66c0.59-0.69,1.18-1.36,1.8-2.02c0.63-0.67,1.28-1.31,1.92-1.92c0.64-0.58,1.29-1.15,1.96-1.69      c0.68-0.54,1.37-1.06,2.06-1.55l0.25-0.17c0.5-0.34,1-0.68,1.52-0.98c0.61-0.35,1.22-0.7,1.81-1.02c0.9-0.45,1.8-0.89,2.71-1.31      c0.76-0.34,1.54-0.64,2.31-0.93l0.31-0.11c0.71-0.25,1.43-0.51,2.16-0.72c0.78-0.23,1.56-0.43,2.32-0.61      c1.26-0.27,2.3-0.46,3.27-0.6c1.05-0.15,2.11-0.27,3.16-0.37c2.33-0.18,4.81-0.22,7.79-0.11c1.38,0.07,2.85,0.15,4.31,0.31      c1.49,0.16,2.88,0.36,4.22,0.59c1.45,0.28,2.9,0.64,4.43,1.1l0.71,0.23c1.31,0.42,2.61,0.93,3.95,1.53      c1.35,0.66,2.78,1.42,4.37,2.34c1.49,0.87,2.85,1.69,4.13,2.52v0c2.03,1.35,4.14,2.94,6.45,4.85c0.89,0.76,1.75,1.5,2.55,2.3      c0.86,0.85,1.68,1.72,2.5,2.6l1.07,1.18c1.57,1.76,3.18,3.74,5.05,6.23c0.54,0.72,1.08,1.45,1.61,2.18l0.69,0.94      c0.76,1.04,1.52,2.07,2.26,3.12l2.55,3.63c1.52,2.16,3.01,4.35,4.49,6.54c1.3,1.93,2.67,4.02,3.85,6.2      c0.13,0.24,0.25,0.49,0.34,0.7c0.03,0.09,0.06,0.19,0.07,0.23l0.04,0.25l0.81-0.11l-0.83,0.28l-0.17,0.35      c-0.1,0.14-0.19,0.28-0.25,0.36c-0.12,0.13-0.24,0.25-0.34,0.35c-0.12,0.11-0.24,0.21-0.33,0.28c-0.25,0.17-0.51,0.33-0.75,0.46      c-1.33,0.69-2.77,1.25-4.17,1.8c-0.48,0.19-0.97,0.38-1.45,0.57l-0.31,0.12c-0.8,0.32-1.62,0.65-2.4,1.11      c-0.48,0.28-0.84,0.56-1.14,0.89c-0.53,0.57-0.87,1.37-0.97,2.23c-0.16,1.43,0.06,2.89,0.29,4.13c0.24,1.26,0.54,2.57,0.88,3.9      l0.33,1.28c0.55,2.09,1.09,4.18,1.58,6.28c0.65,2.87,1.05,5.22,1.26,7.39c0.11,1.31,0.15,2.46,0.12,3.51      c-0.04,0.63-0.1,1.24-0.2,1.84c-0.1,0.51-0.22,1.01-0.37,1.48c-0.18,0.55-0.4,1.08-0.63,1.58c-0.17,0.35-0.36,0.68-0.55,0.98      c-0.23,0.34-0.47,0.66-0.7,0.95c-0.24,0.28-0.5,0.54-0.73,0.77c-0.39,0.34-0.8,0.66-1.2,0.95c-0.58,0.39-1.17,0.74-1.76,1.07      c-0.68,0.34-1.32,0.63-1.93,0.86c-0.68,0.23-1.36,0.42-2.03,0.58c-1.13,0.24-2.2,0.41-3.25,0.52c-1.39,0.12-2.68,0.17-3.95,0.18      c-1.36,0.01-2.7-0.03-4.04-0.09c-2.5-0.11-4.99-0.27-7.49-0.44l-1.6-0.11c-1.91-0.13-3.81-0.27-5.77-0.34      c-0.59-0.02-1.18-0.03-1.78-0.04c-0.52,0-1.19,0.05-1.8,0.34c-0.76,0.37-1.38,0.95-1.82,1.72c-0.36,0.63-0.65,1.33-0.85,2.07      c-0.18,0.65-0.34,1.31-0.47,1.98c-0.51,2.69-0.84,5.41-1.13,7.96c-0.29,2.57-0.53,5.16-0.7,7.69l-0.29,4.28      c-0.07,1.04-0.14,2.09-0.27,3.12c-0.07,0.58,0.09,1.16,0.46,1.63c0.37,0.47,0.93,0.78,1.51,0.85l0.24,0.01      c1.12,0,2.07-0.85,2.22-1.98c0.12-0.93,0.18-1.87,0.25-2.8l0.25-3.75c0.2-3.02,0.4-5.31,0.64-7.44l0.05-0.43      c0.26-2.39,0.54-4.87,0.96-7.26c0.16-0.91,0.38-1.97,0.68-2.98c0.06-0.17,0.13-0.33,0.17-0.44c0.02-0.04,0.04-0.08,0.06-0.12      c0.51-0.01,1.02,0.01,1.54,0.03l0.32,0.01c1.6,0.07,3.19,0.18,4.78,0.29l1.9,0.13c2.64,0.18,5.28,0.36,7.92,0.46      c2.52,0.1,5.22,0.16,7.94-0.07c3.19-0.27,5.85-0.89,8.13-1.9c1.26-0.56,2.46-1.23,3.55-2.01c0.68-0.48,1.21-0.91,1.66-1.34      c0.52-0.5,1-1.02,1.46-1.61c0.79-1.02,1.46-2.21,1.97-3.56c0.5-1.3,0.83-2.62,0.99-3.92c0.27-2.25,0.19-4.67-0.27-7.85      c-0.4-2.82-1.04-5.59-1.56-7.69c-0.28-1.14-0.58-2.28-0.88-3.42c-0.35-1.34-0.71-2.68-1.02-4.03c-0.23-1.05-0.5-2.26-0.62-3.43      c-0.03-0.36-0.05-0.73-0.04-1.05c0-0.01,0-0.03,0-0.04c0.03-0.02,0.07-0.04,0.1-0.05c0.64-0.33,1.31-0.6,1.98-0.87l3.1-1.24      c0.85-0.35,1.74-0.71,2.58-1.15c0.92-0.48,1.98-1.11,2.86-2.07c1.23-1.36,1.82-2.87,1.71-4.37      C202.16,81.85,201.43,80.58,200.73,79.36z M128.26,85.99l0.22-0.04c0.11-0.01,0.22-0.01,0.31-0.01c0.02,0,0.03,0,0.05,0      c0.08,0.03,0.16,0.06,0.17,0.06h0l0.37,0.24c0.16,0.18,0.3,0.37,0.41,0.52c0.11,0.17,0.21,0.34,0.28,0.47      c0.09,0.18,0.17,0.36,0.22,0.49c0.09,0.26,0.17,0.52,0.23,0.75c0.09,0.42,0.15,0.83,0.19,1.22c0.03,0.42,0.03,0.83,0.02,1.23      c-0.03,0.59-0.08,1.18-0.16,1.73c-0.16,0.81-0.34,1.57-0.56,2.28c-0.23,0.67-0.48,1.32-0.76,1.92c-0.25,0.48-0.52,0.95-0.8,1.39      c-0.3,0.45-0.61,0.9-0.94,1.33c-0.06-0.06-0.11-0.11-0.16-0.16c-0.29-0.32-0.55-0.65-0.77-0.94c-0.15-0.25-0.3-0.5-0.42-0.71      c-0.14-0.29-0.27-0.59-0.38-0.84c-0.14-0.39-0.26-0.78-0.35-1.14c-0.08-0.42-0.15-0.84-0.2-1.23c-0.04-0.45-0.04-0.9-0.04-1.33      c0.03-0.62,0.09-1.24,0.18-1.83c0.1-0.53,0.22-1.05,0.36-1.54c0.14-0.43,0.31-0.85,0.47-1.24c0.18-0.36,0.37-0.71,0.56-1.02      c0.19-0.28,0.39-0.55,0.57-0.78c0.15-0.16,0.3-0.33,0.42-0.45c0.11-0.09,0.22-0.18,0.27-0.23L128.26,85.99z M130.06,64.8      c-0.04-0.01-0.09-0.01-0.15-0.02l-0.15-0.05c-0.11-0.06-0.23-0.12-0.3-0.16c-0.07-0.05-0.13-0.09-0.17-0.12      c-0.13-0.11-0.25-0.23-0.33-0.31c-0.1-0.12-0.19-0.24-0.26-0.33c-0.1-0.15-0.19-0.3-0.25-0.42c-0.12-0.25-0.22-0.5-0.32-0.71      c-0.12-0.33-0.23-0.67-0.32-0.97c0.19,0.14,0.37,0.29,0.55,0.43c0.21,0.2,0.42,0.4,0.59,0.57c0.16,0.18,0.31,0.36,0.42,0.51      c0.11,0.16,0.21,0.33,0.28,0.44c0.08,0.17,0.16,0.34,0.21,0.46c0.05,0.15,0.1,0.31,0.13,0.4c0.02,0.12,0.04,0.23,0.06,0.28      L130.06,64.8z M130.12,65.63l0.04-0.53l0.02,0.01L130.12,65.63z M144.58,70.9L144.58,70.9l0.87,0.25      c0.1-0.07,0.21-0.13,0.28-0.17c0.08-0.04,0.15-0.07,0.2-0.09c0.19-0.07,0.38-0.12,0.53-0.16l0.49-0.09      c0.3-0.02,0.6-0.04,0.83-0.05c0.33,0.02,0.66,0.05,0.95,0.08c0.24,0.04,0.48,0.09,0.71,0.15c0.26,0.06,0.5,0.14,0.71,0.2      c0.37,0.14,0.73,0.28,1.04,0.42c0.29,0.15,0.58,0.3,0.87,0.46c0.16,0.09,0.32,0.19,0.54,0.33c0.34,0.25,0.67,0.5,0.95,0.73      c0.33,0.31,0.65,0.62,0.94,0.91c0.23,0.26,0.46,0.53,0.67,0.8c0.21,0.27,0.41,0.54,0.59,0.79c0.42,0.64,0.81,1.29,1.16,1.93      c0.16,0.31,0.31,0.63,0.46,0.95c-0.08,0-0.17,0-0.25,0l-0.22-0.01c-0.26-0.01-0.51-0.03-0.78-0.05      c-0.48-0.04-0.95-0.11-1.39-0.18c-0.82-0.16-1.62-0.36-2.41-0.61c-0.76-0.26-1.51-0.56-2.22-0.87      c-0.67-0.33-1.28-0.67-1.84-1.02c-0.31-0.21-0.6-0.43-0.86-0.63c-0.34-0.3-0.67-0.61-0.95-0.9c-0.18-0.22-0.36-0.44-0.5-0.62      c-0.14-0.21-0.27-0.43-0.37-0.59c-0.09-0.19-0.18-0.39-0.25-0.53c-0.04-0.12-0.08-0.24-0.1-0.3c-0.02-0.1-0.04-0.19-0.04-0.22      l0-0.29l-0.81-0.12l0.89-0.08L144.58,70.9L144.58,70.9z M123.59,59.06l0.01-0.04c0,0,0,0,0,0c0,0,0,0,0,0l0,0      c0.01,0,0.02,0,0.03,0l0,0.04L123.59,59.06z M146.76,160.45L146.76,160.45L146.76,160.45L146.76,160.45z">
          </path>
        </g>
      </g>
      <path class="st2 isotipo-4"
        d="M125.46,109.81c-2.97,7.61-13.11,9.7-20.26,10.17c-5.09,0.34-10.24,0.08-15.29,0.85    c-4.28,0.65-8.73,2.75-10.58,6.91c-1.91,4.28-0.16,9.11,3.38,11.95c3.52,2.83,8.13,3.96,12.55,4.36    c8.62,0.78,17.49-2.13,23.99-7.83c7.26-6.36,11.3-16.2,10.78-25.81c-0.16-2.88-4.66-2.9-4.5,0c0.41,7.51-2.22,15.06-7.36,20.59    c-5.21,5.61-12.71,8.7-20.34,8.67c-3.79-0.01-7.95-0.68-11.22-2.7c-2.85-1.76-4.87-5.37-2.58-8.4c2.42-3.21,7-3.5,10.67-3.69    c4.69-0.24,9.41-0.14,14.07-0.73c8.45-1.07,17.71-4.61,21.04-13.14c0.44-1.13-0.49-2.47-1.57-2.77    C126.96,107.89,125.91,108.67,125.46,109.81L125.46,109.81z">
      </path>
    </g>
  </g>
</svg>