<svg xmlns="http://www.w3.org/2000/svg" viewBox="0 0 509.28 438.01">
  <defs>
    <style>
      .cls-1 {
        fill: #ff8080;
      }

      .cls-2 {
        fill: #759eca;
      }

      .cls-3 {
        fill: #79c0b8;
      }

      .cls-4 {
        fill: #144c87;
      }
    </style>
  </defs>
  <g id="Capa_2" data-name="Capa 2">
    <g id="Capa_1-2" data-name="Capa 1">
      <circle class="cls-1" cx="174.45" cy="144.38" r="93.69" />
      <path class="cls-2"
        d="M317.22,251c21.72,8.61,46.16-3.69,63.75-19.07s32.76-34.59,54.25-43.77c24-10.28,56.56-3.2,68.3,20.18,3.77,7.52,5.19,16,5.62,24.42,1.16,22.42-4.95,45.82-19.93,62.54-18.94,21.14-49,28.76-77.36,29.42-23.26.54-47.44-3.21-66.72-16.21s-32.45-36.81-27.9-59.62" />
      <path class="cls-3"
        d="M155.93,269.22c-7.47,20-28,32.44-48.76,37.32s-42.38,3.7-63.66,5c-9.12.56-18.42,1.64-26.63,5.63S1.61,328.56.24,337.59C-1.06,346.17,3,355,9.31,360.94s14.58,9.46,23,11.72a101.18,101.18,0,0,0,88.83-19c24.35-19.88,38.32-51.85,36.38-83.23" />
      <path class="cls-4"
        d="M218.88,429.11c2-23.8,3-48,6.24-71.65,1.3-9.37,5.35-18,14.62-21.72,8.59-3.4,18-1.54,26.83-.18,21.9,3.39,45.58,5.62,66.71-2.61,17.1-6.67,32.24-20.74,34.92-39.57,3-21.13-6.8-41.77-4.81-62.94,1.51-16.06,8.32-33,24.31-39.39,3.37-1.35,9.33-1.66,8.86-6.36-.48-4.9-4.37-9.94-6.68-14.15-5-9-10-18.06-15.13-27-10.18-17.56-21-34.84-33.37-50.95C317.26,61.22,286.72,35.23,249,22.11c-35.53-12.35-74.82-14-110.88-2.85C70.1,40.34,22.15,112.33,32.78,183.61c6,40.39,31.69,73.49,54.85,105.73,24.17,33.63,48.24,71.77,48,114.74a98.63,98.63,0,0,1-4.77,29.82c-2.34,7.23-13.79,4.14-11.43-3.15,13.95-43.06-8.43-87-32.43-121.85-23.66-34.32-52.14-67.32-62.86-108.55C5.68,129.43,44.93,50.08,109.87,17.87,145,.47,185.29-3.78,223.62,3.19c39.46,7.18,75.11,26.77,103.4,55,29.66,29.64,51.05,66.3,71.14,102.77,4.42,8,12.13,18.2,10,27.94-2.34,10.73-12.79,10.17-20.26,15.28-14.61,10-14,32.23-11.59,47.56,3.38,21.79,8.4,44.46-4.06,64.45-9.89,15.88-27,26.57-45,31-23.16,5.73-46.07,1.93-69.26-1.09-4.26-.56-9.07-1.06-13.21.33-4.82,1.62-6.67,5.75-7.64,10.43-2.39,11.48-2.32,23.85-3.31,35.53l-3.11,36.67c-.64,7.54-12.49,7.61-11.85,0Z" />
      <path class="cls-4"
        d="M67.9,166.11c-3.45,11.42-2.65,25.58,2.11,36.33a56.48,56.48,0,0,0,24.16,26.61,46.1,46.1,0,0,0,9.87,4,36.92,36.92,0,0,0,11.72,11.31,89.57,89.57,0,0,0,9.85,4.88c11.49,5.17,24.5,11,21.64,23.31a5.32,5.32,0,0,0,1.54,5.23,6,6,0,0,0,5.67,1.38,5,5,0,0,0,3.46-3.83c4.64-19.92-12.9-28.53-27-35.44-2.28-1.12-4.5-2.21-6.56-3.31a44.33,44.33,0,0,1-5.23-3.22,18.05,18.05,0,0,0,8.28-5.28,17.45,17.45,0,0,0,4.23-14.81,13,13,0,0,0-7.42-9.41,16.4,16.4,0,0,0-13.26-.1,17.08,17.08,0,0,0-9.61,9.9,20.56,20.56,0,0,0-1.19,6.06c-.75-.4-1.49-.82-2.22-1.27-14.47-8.79-23.21-26.24-21.34-41.75a25,25,0,0,0,15.72,5.2,19.3,19.3,0,0,0,17.28-10.66c3.32-6.57,3-14.69-.9-20.22-3.57-5.11-9.52-7.49-16.79-6.63a26.41,26.41,0,0,0-16.68,8.32c-1.83-14.69,6.89-32.31,15-45,10.71-16.89,24.92-29.8,40-36.35a56.08,56.08,0,0,1,23.5-4.67c-11,11.44-17,25.12-17.09,38.93A32.34,32.34,0,0,0,184,134.3a35.41,35.41,0,0,0,18.13-24.16,43,43,0,0,0-7.65-34.89,47.37,47.37,0,0,0-16.15-13.56l1.35-.71c16-8.07,36.55-9.59,57.87-4.27,15.13,3.78,36,11.47,49.33,26.64a45.91,45.91,0,0,1,6.61,50.51c-5.69,11.33-17,20-29.89,23a34.39,34.39,0,0,0,.34-7.42c-.63-9.64-6.72-21.24-18.59-23.93-9.32-2.11-21.25,2.73-24.17,13.31-3.34,12.12,5.55,23.07,15.61,27.22a40,40,0,0,0,9.78,2.63c-6.75,8.41-17.28,14.32-25.36,16.59a51.64,51.64,0,0,1-5.74,1.26,37.88,37.88,0,0,0-2.9-9.63c-5.19-11.34-15.76-20-26.93-22.06a21.66,21.66,0,0,0-17.14,4.05,14.92,14.92,0,0,0-5.72,11.44c-.39,13.1,14.17,20.68,20.45,23.33a59.58,59.58,0,0,0,21.44,4.59c-1.83,10.34-9.38,16.58-17.64,22.55l-1,.78a20.35,20.35,0,0,0-7.17,14.7c-.38,8.94,4.9,19.92,14.12,29.37,21.68,22.21,54.84,29,68.09,31a216.64,216.64,0,0,0,30.67,2.18c42.16,0,88.06-12.44,114.35-47.9a4.82,4.82,0,0,0-1.06-7,5.84,5.84,0,0,0-8.25,1.1c-20.72,27.94-56.53,41.73-109.5,42.17-20.45.14-38.1-3-54.59-9.65-10.26-4.16-40.93-21.18-43.64-36.43-.75-4.22.73-7.93,4.52-11.36,7.35-5.06,13.93-10,18.06-18.15a40.24,40.24,0,0,0,4.11-13.89l.59-.08c14.88-2.27,34.59-12.23,43.33-28.82a57.76,57.76,0,0,0,13.13-3.18,56,56,0,0,0,36.05-58.94c-3.42-29.18-28.46-45.46-48.88-54-29.46-12.3-58.53-13.4-81.85-3.08A76.28,76.28,0,0,0,165,57c-13.46-2.8-28.74-.77-42.1,5.63-22.5,10.78-41.61,32.47-52.42,59.53-4.25,10.62-9.29,26.41-3.94,40.83A29.9,29.9,0,0,0,67.9,166.11Zm21-9.52c3.45-1.58,7.43-1.58,9.89,0a6.08,6.08,0,0,1,2.67,5.5c0,4.24-1.7,6.94-5,8-5,1.63-12.37-.72-16.17-5A19.81,19.81,0,0,1,88.91,156.59Zm59.71-58.84c2.52-10.84,9-20.77,18.79-28.76a37.61,37.61,0,0,1,17.12,11.44,32.51,32.51,0,0,1,7,26.76,24.62,24.62,0,0,1-13,17.5A22.66,22.66,0,0,1,155.87,123C145.67,115.91,147.4,103,148.62,97.75Zm103.6,60.32c-.83,0-1.65-.06-2.48-.13-5.86-.54-16.18-5.32-18.39-11.3-1-2.63-.2-5.19,2.36-7.82a8.56,8.56,0,0,1,8.73-2.6c4.57,1.24,8.78,5.81,10,10.85A21.51,21.51,0,0,1,252.22,158.07Zm-75.08,19c-2.57-2.62-3.47-5.78-2.35-8.24,1-2.16,3.32-3.36,6.5-3.36l.77,0c4.09.24,8.84,2.47,13,6.12a28.91,28.91,0,0,1,9.37,15.75C193.16,187,183.29,183.33,177.14,177ZM115.51,223a12.26,12.26,0,0,1-3.88.43,9.86,9.86,0,0,1,1.14-7.68,5.28,5.28,0,0,1,4.3-2.21h.35c3,0,3.27,1.47,3.35,2,.4,2.49-2.08,6.57-5.26,7.49Z" />
    </g>
  </g>
</svg>