<svg xmlns="http://www.w3.org/2000/svg" xmlns:xlink="http://www.w3.org/1999/xlink" version="1.1" id="Capa_1" x="0px"
  y="0px" viewBox="0 0 300 360" style="enable-background:new 0 0 300 360;" xml:space="preserve">
  <style type="text/css">
    .st0 {
      fill: #FFFFFF;
    }

    .st1 {
      fill: #FF8080;
    }

    .st2 {
      fill: #79C0B8;
    }

    .st3 {
      fill: #759ECA;
    }

    .st4 {
      fill: #144C87;
    }
  </style>
  <g>
    <circle cx="134" cy="74" r="28" stroke-width="3" class="st1" />
    <g>
      <path class="st3"
        d="M178.94,109c4.44,1.67,9.26,0.79,13.4-1.28c4.1-2.05,7.26-5.41,10.52-8.54c2.99-2.86,6.28-5.81,10.4-6.8    c3.25-0.78,6.88-0.33,9.73,1.45c3.62,2.25,4.46,6.38,4.43,10.39c-0.03,4.31-1.19,8.72-3.81,12.2c-5.2,6.93-15.04,8.38-23.13,7.89    c-4.88-0.3-10.14-1.6-13.89-4.91c-3.33-2.93-5.73-7.44-4.9-11.98c0.22-1.19-0.33-2.43-1.57-2.77c-1.09-0.3-2.55,0.37-2.77,1.57    c-0.93,5.08,0.64,9.99,3.82,13.99c3.21,4.04,7.99,6.53,12.95,7.7c5,1.17,10.26,1.23,15.32,0.53c4.71-0.65,9.45-2.15,13.31-5    c4.16-3.07,7-7.46,8.28-12.46c1.3-5.04,1.45-11.13-0.94-15.87c-4.13-8.2-15.35-9.27-22.69-5.21c-4.98,2.75-8.61,7.23-12.85,10.91    c-3.93,3.41-9.32,5.78-14.45,3.85c-1.14-0.43-2.47,0.48-2.77,1.57C177.03,107.5,177.8,108.57,178.94,109L178.94,109z" />
      <g>
        <g>
          <path class="st4"
            d="M38.53,165.18c0-2.75,1.18-3.93,4.09-3.93h26.4c2.51,0,3.85,1.34,3.85,4.01c0,2.75-1.34,3.93-3.85,3.93      H47.57v14.53h17.76c2.51,0,3.93,1.02,3.93,3.77c0,2.67-1.41,3.69-3.93,3.69H47.57v19.41c0,2.67-1.26,3.85-4.09,3.85h-0.86      c-2.99,0-4.09-1.18-4.09-3.93V165.18z" />
          <path class="st4"
            d="M94.55,174.45c9.9,0,19.64,6.6,19.64,20.35c0,13.83-9.66,20.27-19.64,20.27c-9.9,0-19.64-6.44-19.64-20.27      C74.91,181.05,84.65,174.45,94.55,174.45z M94.55,207.84c6.29,0,11-4.4,11-13.12c0-8.72-4.71-13.04-11-13.04s-11,4.32-11,13.04      C83.55,203.44,88.26,207.84,94.55,207.84z" />
          <path class="st4"
            d="M122.04,179.01c0-2.83,1.26-3.93,4.01-3.93h0.47c2.83,0,4.01,1.1,4.01,3.93v3.3      c1.65-3.54,5.66-7.86,12.1-7.86c7.31,0,13.98,4.09,13.98,15.71v20.35c0,2.83-1.18,3.93-4.09,3.93h-0.63      c-2.59,0-3.85-1.1-3.85-3.93v-19.17c0-7.07-3.3-9.27-8.17-9.27c-5.66,0-9.27,4.87-9.27,12.33v16.11c0,2.83-1.18,3.93-4.09,3.93      h-0.47c-2.91,0-4.01-1.1-4.01-3.93V179.01z" />
          <path class="st4"
            d="M183.4,174.45c9.9,0,19.64,6.6,19.64,20.35c0,13.83-9.66,20.27-19.64,20.27c-9.9,0-19.64-6.44-19.64-20.27      C163.76,181.05,173.5,174.45,183.4,174.45z M183.4,207.84c6.29,0,11-4.4,11-13.12c0-8.72-4.71-13.04-11-13.04s-11,4.32-11,13.04      C172.4,203.44,177.12,207.84,183.4,207.84z" />
        </g>
      </g>
      <g>
        <path class="st2"
          d="M59.28,264.1c-1.23,1.76-2.35,3.63-3.46,5.5c-0.67,1.1-1.68,2.97-2.79,3.74c-1.79,1.21-4.25,1.54-6.26,0.88     c-3.8-1.1-6.71-5.39-8.16-8.69c-1.9-4.29-1.46-8.91-0.67-13.31c1.34-8.14,6.37-15.84,13.53-20.13c1.57-0.99,3.47-1.65,5.14-2.42     c1.68-0.66,4.03,0,5.7,0.55c0.78,0.22,1.68,0.99,2.57,1.1c0.78,0.11,1.56-0.55,2.35-0.55c1.9-0.11,3.69,1.76,4.58,3.3     c2.01,3.41,1.23,8.25,1.34,12.1c0,5.17-0.45,10.23-0.45,15.4c-0.11,3.19-0.56,6.38,0,9.57c0.22,1.1,0.67,3.52,2.12,3.74     c1.79,0.11,3.69-3.63,4.36-4.84c2.35-3.85,3.35-5.72,5.59-9.68l3.69-6.05l1.68-2.42c0.22-0.44,0.56-0.99,0.89-1.21     c0.45-0.22,1.01-0.22,1.46-0.55c0.67-0.44,1.12-1.32,1.68-1.76c0.34-0.33,1.34-1.43,1.9-1.43c0.78,0,1.01,0.99,0.89,1.54     c-0.22,0.88-1.34,1.98-1.79,2.64c-1.23,1.87-1.9,3.85-2.91,5.72c-1.01,2.09-2.24,3.96-3.35,5.94     c-3.58,6.27-4.81,10.56-9.28,16.17c-1.12,1.54-3.35,2.86-5.37,2.86c-1.9-0.11-5.03-1.1-6.37-2.53c-1.56-1.65-2.68-4.18-3.35-6.38     c-1.12-3.63-1.45-7.15-1.56-10.89c0-0.77,0.33-2.86-0.22-3.3C61.4,260.14,60.4,262.34,59.28,264.1z M48.88,269.71     c2.57-0.77,4.58-4.84,6.04-6.71c1.68-2.31,7.94-11.66,8.61-14.41c0.34-1.43,0.34-2.86,0.56-4.29l0.89-4.62     c0.11-0.88,0.89-3.08,0.56-3.96c-0.34-0.77-2.46-1.65-3.24-1.87c-4.47-1.65-8.61,8.03-9.84,10.89     c-2.68,6.05-4.81,12.76-4.81,19.36C47.65,265.31,46.98,270.26,48.88,269.71z" />
        <path class="st2"
          d="M112.04,233.08c1.79,2.53,1.12,7.04-0.22,9.9c-0.56,1.32-2.35,2.31-3.58,1.32c-1.79-1.32-1.01-3.85-0.45-5.5     s1.79-3.19,0.11-4.73c-1.12-0.99-2.79-0.77-3.8,0.22c-2.79,2.53-4.47,6.93-5.48,10.23c-0.67,1.98-1.12,3.85-1.34,5.83     c-0.22,2.2-0.67,4.51-0.78,6.71c-0.11,4.07,0.33,8.47,0.89,12.54c0.22,1.43,0.67,3.96,2.24,4.73c1.45,0.77,3.58-0.66,4.7-1.54     c1.56-1.1,2.68-2.75,3.91-4.18c1.56-1.76,3.35-3.52,4.81-5.28c2.35-3.08,4.47-6.38,6.71-9.46c1.12-1.54,2.35-3.08,3.58-4.62     c0.67-0.88,2.79-4.18,4.47-3.3c1.45,0.66-9.28,17.93-10.28,19.36s-2.01,3.41-3.13,4.62c-0.67,0.55-1.23,0.66-1.68,1.32     c-0.67,0.77-1.23,1.54-1.9,2.2c-1.34,1.32-2.68,2.75-4.25,3.74c-1.57,0.99-3.69,1.43-5.48,1.76c-3.69,0.66-8.27-1.21-10.84-3.85     c-3.02-2.97-4.13-8.14-4.47-12.21c-0.45-4.95,0-10.12,1.23-14.96c0.56-2.2,1.23-4.4,2.23-6.38c3.02-5.72,7.6-11.66,14.64-11.99     C107.01,229.34,109.92,230.33,112.04,233.08z" />
        <path class="st2"
          d="M144.57,233.08c1.79,2.53,1.12,7.04-0.22,9.9c-0.56,1.32-2.35,2.31-3.58,1.32c-1.79-1.32-1.01-3.85-0.45-5.5     s1.79-3.19,0.11-4.73c-1.12-0.99-2.79-0.77-3.8,0.22c-2.79,2.53-4.47,6.93-5.48,10.23c-0.67,1.98-1.12,3.85-1.34,5.83     c-0.22,2.2-0.67,4.51-0.78,6.71c-0.11,4.07,0.33,8.47,0.89,12.54c0.22,1.43,0.67,3.96,2.24,4.73c1.45,0.77,3.58-0.66,4.7-1.54     c1.56-1.1,2.68-2.75,3.91-4.18c1.56-1.76,3.35-3.52,4.81-5.28c2.35-3.08,4.47-6.38,6.71-9.46c1.12-1.54,2.35-3.08,3.58-4.62     c0.67-0.88,2.79-4.18,4.47-3.3c1.45,0.66-9.28,17.93-10.28,19.36s-2.01,3.41-3.13,4.62c-0.67,0.55-1.23,0.66-1.68,1.32     c-0.67,0.77-1.23,1.54-1.9,2.2c-1.34,1.32-2.68,2.75-4.25,3.74c-1.57,0.99-3.69,1.43-5.48,1.76c-3.69,0.66-8.27-1.21-10.84-3.85     c-3.02-2.97-4.13-8.14-4.47-12.21c-0.45-4.95,0-10.12,1.23-14.96c0.56-2.2,1.23-4.4,2.23-6.38c3.02-5.72,7.6-11.66,14.64-11.99     C139.54,229.34,142.45,230.33,144.57,233.08z" />
        <path class="st2"
          d="M185.03,248.7v0.22c-1.9,4.07-3.8,7.92-6.04,11.77c-3.13,5.39-7.15,17.38-14.53,17.38     c-10.29,0-12.3-10.34-12.19-18.92c0.11-3.63,2.35-26.18,6.26-26.62c0.78-0.77,0.45-0.99,1.79-0.99c0.56,0,1.56,0.33,2.12,0.55     c2.57,0,4.14,3.63,4.03,5.83c0,2.64-0.56,5.39-1.01,8.03c-1.23,6.6-2.68,13.75-2.79,20.35c0,1.65,0.45,5.83,2.79,5.83     c5.81,0,16.32-26.07,18.89-26.07h0.34l0.11,0.33c0,0.77,0,1.87-0.45,2.53L185.03,248.7z M165.58,216.36     c1.34,0,1.68,0.77,2.57,1.43c0.89,0,1.23,1.87,1.23,2.64c-0.11,1.54-2.01,3.85-3.69,3.85c-2.01,0-4.81-1.54-4.81-3.85     c0.11-1.87,1.9-4.29,4.03-3.96C165.13,216.47,165.36,216.36,165.58,216.36z" />
        <path class="st2"
          d="M208.17,245.62c-0.11,0-0.22,0.11-0.22,0.11c-0.11,0.11-0.11,0.33-0.11,0.44     c0.22,5.17,0.11,10.12-0.78,15.18c-1.12,5.61-3.91,11.33-8.5,15.29c-4.92,4.4-11.96,3.85-16.32-0.99     c-4.58-5.06-5.37-12.1-4.81-18.48c0.34-3.19,1.12-6.27,2.46-9.24c1.12-2.64,3.8-5.5,4.47-8.25c0.56-2.53-0.45-4.4,1.23-6.93     c1.45-2.2,3.91-4.07,6.71-4.29c2.79-0.33,5.7,0.77,7.71,2.64c2.12,1.76,3.46,4.18,4.36,6.71c0.45,1.54,0.34,3.3,2.24,3.74     c3.35,0.66,8.16-1.76,11.4-2.53c1.68-0.44,4.36-1.76,6.04-0.77c1.12,0.66,1.56,1.65,0.33,2.64c-1.01,0.66-3.58,0.99-4.92,1.54     c-1.56,0.55-1.79,0.88-3.46,1.21C213.31,244.19,210.86,245.07,208.17,245.62z M200.35,246.28c-2.24,1.21-4.92,0.77-7.27,0     c-0.89-0.33-1.9-0.66-2.57-0.11c-0.89,0.55-1.12,2.31-1.34,3.19c-0.56,1.65-1.01,3.3-1.23,5.06c-0.56,3.3-0.78,6.71-0.45,10.12     c0,0.44,0,0.77,0.11,1.1c0.22,2.09,0.22,6.71,2.35,8.03c4.47,2.64,7.49-7.81,8.16-10.01C199.79,258.16,201.02,252,200.35,246.28z      M189.28,237.92c0,0,1.68,1.43,1.79,1.65c0.56,0.66,1.01,1.43,1.68,2.09c1.56,1.21,4.36,0.99,6.37,1.21     c0.22,0,0.45,0.11,0.67-0.11c0.22-0.11,0.33-0.33,0.33-0.66c0.56-3.19-1.45-9.13-5.25-10.12c-1.34-0.33-2.57,0.11-3.46,0.99     c-1.12,1.1-1.79,2.42-2.01,3.96C189.28,237.26,189.28,237.59,189.28,237.92z M198.34,219.99c-0.67,0.77-1.68,3.08-2.57,3.52     c-1.01,0.55-2.57-0.44-2.79-1.43c-0.45-2.09,3.69-6.27,4.7-7.7c1.34-1.54,4.58-6.27,5.59-1.87     C203.03,215.04,200.01,218.12,198.34,219.99z" />
        <path class="st2"
          d="M235.11,231.65c3.8-2.42,9.05-0.88,11.85,2.2c1.23,1.43,2.68,2.86,3.02,4.84c0.45,2.31,0.34,6.49,0.34,8.8     c0,5.5-0.11,11-0.78,16.61c-0.22,2.31-0.11,4.07,1.9,1.65c1.56-1.98,13.97-21.45,15.54-22.66c0.56-0.44,2.01,1.76,1.56,2.75     c-0.67,1.87-1.68,4.07-2.46,5.83c-0.89,2.09-2.46,4.73-3.69,6.82c-2.57,4.29-3.8,7.7-6.48,11.99c-1.23,1.98-3.91,4.4-6.37,4.84     c-1.68,0.22-3.13,0-4.58-1.21c-3.91-3.41-4.03-8.36-4.25-13.09c-0.11-2.31-0.45-4.51-0.22-6.82c0.22-2.86,0.34-5.72,0.34-8.58     c0-1.76,0.89-7.26-0.11-8.8c-1.57-2.2-4.81,1.76-5.59,2.97c-2.46,4.07-3.8,9.02-5.03,13.53c-0.56,2.31-2.68,11.88-3.13,14.41     c-0.34,1.76-0.67,5.06-2.01,6.27c-1.45,1.32-3.8,2.09-5.59,1.32c-5.7-2.2-4.03-9.46-3.8-14.08c0.45-6.38,0.45-12.65,0.78-18.92     c0.22-2.86,0-5.83,0.22-8.69c0.11-2.2,2.79-2.31,4.81-1.98c2.24,0.55,4.36,1.87,5.37,3.85c1.12,2.42,0.67,5.06,1.45,7.48     C229.52,239.35,231.65,233.85,235.11,231.65z" />
      </g>
      <g>
        <g>
          <path class="st4"
            d="M222.55,196.11c5.73,0,9.04,3.44,9.04,7.61c0,4.5-3.81,6.79-8.76,6.79c-2.89,0-5.46-0.55-6.79-1.1      c0,3.99,3.44,6.42,7.43,6.42c3.62,0,5.6-1.38,6.38-2.8c0.87,0.23,1.74,0.87,1.74,2.16c0,2.25-3.21,4.63-8.39,4.63      c-6.33,0-11.79-3.58-11.79-11.74S216.96,196.11,222.55,196.11z M221.91,206.89c3.49,0,5.41-0.87,5.41-3.17      c0-2.02-2.06-3.67-5.04-3.67c-3.49,0-6.01,2.71-6.1,5.92C217.23,206.34,219.62,206.89,221.91,206.89z" />
          <path class="st4"
            d="M236.31,198.77c0-1.65,0.73-2.29,2.34-2.29h0.28c1.65,0,2.34,0.64,2.34,2.29v1.93      c0.96-2.06,3.3-4.59,7.06-4.59c4.27,0,8.16,2.39,8.16,9.17v11.88c0,1.65-0.69,2.29-2.38,2.29h-0.37c-1.51,0-2.25-0.64-2.25-2.29      v-11.19c0-4.13-1.93-5.41-4.77-5.41c-3.3,0-5.41,2.84-5.41,7.2v9.4c0,1.65-0.69,2.29-2.39,2.29h-0.28      c-1.7,0-2.34-0.64-2.34-2.29V198.77z" />
        </g>
      </g>
      <g>
        <g>
          <path class="st4"
            d="M200.73,79.36c-1.28-2.23-2.68-4.33-4.12-6.46c-3.32-4.9-6.37-9.24-9.33-13.28      c-1.55-2.1-3.14-4.28-4.85-6.35c-1.71-2.07-3.55-4.12-5.48-6.08c-1.95-1.99-4.15-3.76-6.24-5.37c-1.25-0.96-2.32-1.74-3.36-2.43      c-1.17-0.78-2.36-1.52-3.56-2.24c-2.27-1.35-4.71-2.77-7.28-3.86c-0.61-0.26-1.22-0.5-1.85-0.72l-1.45-0.49      c-0.2-0.08-0.42-0.15-0.63-0.21l-0.17-0.05c-2.37-0.75-4.99-1.3-7.99-1.68c-2.56-0.32-5.19-0.51-8.03-0.55      c-3.06-0.05-5.78,0.07-8.3,0.38c-3.13,0.38-5.85,0.95-8.31,1.72c-1.31,0.41-2.58,0.88-3.76,1.37l-0.21,0.09      c-0.57,0.24-1.14,0.48-1.7,0.74c-0.64,0.31-1.27,0.62-1.91,0.95c-2.23,1.13-4.42,2.59-6.91,4.6c-0.48,0.39-0.94,0.8-1.4,1.22      l-0.16,0.14c-0.5,0.45-0.98,0.92-1.46,1.4c-0.86,0.87-1.76,1.86-2.82,3.1c-1.65,1.93-3.23,4.15-4.98,7      c-0.68,1.11-1.31,2.27-1.88,3.45c-0.55,1.14-1.18,2.49-1.75,3.9c-0.5,1.24-0.98,2.54-1.46,3.97c-0.4,1.2-0.77,2.53-1.15,4.2      c-0.54,2.37-0.86,4.96-1.01,8.14c-0.13,2.89-0.03,5.71,0.31,8.38c0.34,2.69,0.98,5.46,1.9,8.24c0.49,1.47,1.12,2.85,1.62,3.89      c0.61,1.27,1.31,2.48,2.07,3.62c0.7,1.03,1.55,2.09,2.59,3.24c0.51,0.56,1.02,1.11,1.55,1.64c0.51,0.52,1.08,0.99,1.62,1.42      c0.98,0.78,2.11,1.51,3.54,2.29c1.29,0.7,2.64,1.25,3.99,1.63c1.37,0.38,2.8,0.65,4.26,0.79c0.71,0.07,1.41,0.06,2.06,0.05      c0.68-0.02,1.36-0.06,2.03-0.12c1.5-0.14,2.85-0.39,4.14-0.76c1.29-0.37,2.6-0.86,3.99-1.49c1.25-0.57,2.49-1.3,3.71-2.18      c0.52-0.38,0.97-0.71,1.39-1.08c0.31,0.18,0.63,0.34,0.94,0.5l0.3,0.16c0.55,0.29,1.16,0.55,1.92,0.85      c1.25,0.48,2.55,0.86,3.89,1.13c1.68,0.34,2.99,0.53,4.4,0.63c1.38,0.1,2.76,0.11,4.15,0.05c1.24-0.05,2.69-0.13,4.12-0.45      c0.74-0.17,1.48-0.35,2.22-0.55c0.68-0.19,1.36-0.44,2.02-0.7c0.63-0.24,1.27-0.53,1.95-0.88c0.57-0.29,1.17-0.65,1.89-1.13      c0.56-0.37,1.11-0.8,1.79-1.37c0.3-0.25,0.59-0.51,0.87-0.78l0.23-0.22c0.17-0.16,0.35-0.33,0.51-0.5l0.22-0.23      c0.2-0.22,0.41-0.44,0.6-0.67l0.64-0.77c0.4-0.47,0.75-0.98,1.09-1.5l0.15-0.22c0.41-0.6,0.74-1.22,1.11-1.93      c0.32-0.61,0.56-1.24,0.84-1.99c0.06-0.17,0.12-0.34,0.17-0.51l0.09-0.31c0.04-0.11,0.07-0.22,0.1-0.34l0.06-0.25      c0.06-0.24,0.12-0.48,0.17-0.72l0.05-0.26c0.06-0.33,0.12-0.66,0.16-0.99c0.04-0.35,0.07-0.7,0.09-1.06      c0.08-1.42-0.06-2.79-0.28-4.4c-0.17-1.26-0.47-2.59-0.92-4.18c-0.01-0.04-0.03-0.09-0.04-0.13c0.52-0.2,1.02-0.45,1.49-0.73      c0.75-0.44,1.39-0.88,1.95-1.36c0.57-0.48,1.1-1.04,1.68-1.75c0.49-0.6,0.85-1.26,1.14-1.83c0.23-0.45,0.43-0.94,0.59-1.48      c0.11-0.35,0.2-0.7,0.28-1.21c0.03-0.14,0.05-0.29,0.07-0.43c0.08-0.87,0.08-1.6,0.02-2.3c-0.06-0.69-0.18-1.4-0.35-2.17      c-0.33-1.48-0.87-2.84-1.37-3.98c-0.57-1.3-1.22-2.53-1.93-3.67c-0.82-1.3-1.64-2.43-2.51-3.48c-0.93-1.11-1.92-2.15-2.94-3.08      c-0.93-0.85-1.99-1.66-3.34-2.55c-1.14-0.76-2.37-1.48-3.76-2.2c-1.18-0.61-2.49-1.16-4-1.66c-1.41-0.47-2.84-0.81-4.26-1.01      c-1.67-0.24-3.12-0.34-4.46-0.32l-0.41,0c-0.61,0.01-1.21,0.01-1.81,0.06c-0.76,0.06-1.51,0.13-2.26,0.22      c-1.22,0.14-2.55,0.42-4.17,0.87c-0.23,0.07-0.46,0.14-0.69,0.22l-0.27,0.09c-0.36,0.12-0.72,0.26-1.06,0.41      c-0.64,0.29-1.31,0.6-1.96,0.98c-0.34,0.2-0.67,0.42-1,0.64c-0.29,0.2-0.59,0.41-0.86,0.64c-0.31,0.27-0.61,0.53-0.9,0.82      c-0.23,0.23-0.45,0.47-0.67,0.72c-0.29,0.33-0.54,0.7-0.78,1.07c-0.34,0.52-0.61,1.06-0.82,1.6c-0.06,0.16-0.12,0.32-0.17,0.48      c-0.09-0.01-0.18-0.03-0.26-0.04c-0.64-0.09-1.32-0.13-2.16-0.14c-0.69-0.01-1.38,0-2.08,0.05l-0.32,0.02      c-0.65,0.05-1.32,0.09-1.99,0.23c-1.66,0.34-2.97,0.76-4.25,1.38c-0.3,0.14-0.59,0.29-0.88,0.45c-0.31,0.18-0.62,0.36-0.92,0.55      c-0.59,0.37-1.17,0.79-1.72,1.23c-0.48,0.38-0.95,0.82-1.55,1.42c-0.59,0.6-1.02,1.08-1.4,1.56c-0.81,1.05-1.72,2.29-2.32,3.71      c-0.28,0.66-0.54,1.33-0.75,2.01c-0.23,0.71-0.4,1.4-0.53,2.11c-0.27,1.42-0.4,2.86-0.4,4.28c0,1.3,0.13,2.66,0.4,4.15      c0.12,0.63,0.28,1.3,0.5,2.07c0.17,0.59,0.35,1.19,0.63,1.77c0.52,1.11,1.84,1.61,2.94,1.11c0.54-0.24,0.97-0.71,1.18-1.27      c0.21-0.56,0.18-1.16-0.06-1.69c-0.04-0.08-0.07-0.17-0.1-0.24c-0.22-0.6-0.41-1.28-0.6-2.03c-0.16-0.77-0.28-1.57-0.37-2.43      c-0.06-0.73-0.07-1.46-0.06-2.17c0.04-0.74,0.12-1.54,0.27-2.49c0.06-0.31,0.11-0.62,0.19-0.93c0.08-0.32,0.17-0.63,0.26-0.9      c0.2-0.55,0.4-1.1,0.61-1.6c0.23-0.47,0.48-0.92,0.73-1.33c0.44-0.64,0.9-1.26,1.37-1.83c0.42-0.45,0.85-0.89,1.27-1.3      c0.43-0.38,0.88-0.74,1.32-1.06c0.48-0.32,0.97-0.63,1.42-0.89c0.53-0.25,1.06-0.49,1.56-0.69c0.52-0.17,1.04-0.33,1.52-0.45      c0.57-0.11,1.13-0.19,1.76-0.26c0.46-0.04,0.92-0.07,1.38-0.08c0.5-0.01,0.99,0,1.46,0.01c0.38,0.02,0.76,0.06,1.13,0.1      c-0.01,0.59,0.03,1.19,0.1,1.77c0.09,0.72,0.27,1.45,0.53,2.18c0.39,1.07,0.86,2.19,1.66,3.12c0.7,0.82,1.46,1.42,2.31,1.83      c0.86,0.42,1.78,0.62,2.59,0.57c0.94-0.06,1.72-0.31,2.38-0.76c0.7-0.48,1.25-1.16,1.5-1.87c0.19-0.54,0.29-1.01,0.31-1.46      c0.02-0.4,0-0.76-0.05-1.11c-0.07-0.45-0.17-0.85-0.3-1.21c-0.27-0.76-0.62-1.46-1.08-2.13c-0.93-1.36-2.21-2.35-3.23-3.06      c-0.54-0.38-1.12-0.69-1.64-0.95c0.06-0.16,0.12-0.32,0.18-0.46c0.07-0.15,0.15-0.29,0.2-0.39c0.16-0.24,0.33-0.48,0.47-0.67      c0.22-0.25,0.45-0.49,0.65-0.69c0.29-0.25,0.58-0.49,0.84-0.69c0.37-0.24,0.73-0.48,1.07-0.68c0.34-0.18,0.68-0.35,1.04-0.51      c0.29-0.13,0.59-0.24,0.87-0.35c0.45-0.15,0.89-0.29,1.35-0.42c0.35-0.1,0.69-0.18,1.05-0.26c0.51-0.1,1.01-0.19,1.52-0.27      c0.45-0.07,0.9-0.12,1.34-0.17l-0.1-0.81c0,0,0,0,0,0l0.26,0.8c0.62-0.05,1.23-0.1,1.85-0.11c0.7-0.01,1.4-0.01,2.06,0      c0.52,0.03,1.04,0.06,1.55,0.11c0.49,0.05,0.98,0.12,1.45,0.18c0.49,0.09,0.99,0.19,1.48,0.3c0.46,0.11,0.92,0.24,1.38,0.37      c0.48,0.16,0.96,0.32,1.43,0.5c0.45,0.17,0.89,0.36,1.36,0.56c0.71,0.34,1.42,0.69,2.11,1.07c0.71,0.4,1.39,0.82,2.06,1.25      l0.26,0.17c0.37,0.24,0.75,0.49,1.1,0.76c0.43,0.33,0.86,0.67,1.25,1c0.34,0.31,0.68,0.62,1.01,0.94      c0.32,0.31,0.63,0.64,0.92,0.95l0.14,0.15c0.35,0.39,0.69,0.78,1.01,1.19c0.36,0.46,0.71,0.93,1.05,1.38l0.15,0.22      c0.26,0.39,0.53,0.78,0.77,1.18c0.27,0.46,0.54,0.92,0.79,1.37c0.26,0.5,0.51,1.01,0.74,1.53c0.23,0.53,0.45,1.07,0.64,1.57      c0.18,0.52,0.34,1.04,0.47,1.54c0.13,0.63,0.24,1.25,0.3,1.83c0.01,0.31,0.02,0.61,0.02,0.85c-0.03,0.29-0.06,0.57-0.1,0.8      c-0.04,0.19-0.09,0.37-0.13,0.52c-0.08,0.24-0.18,0.47-0.25,0.64c-0.15,0.28-0.3,0.55-0.42,0.77c-0.19,0.26-0.38,0.51-0.54,0.72      c-0.22,0.24-0.44,0.46-0.63,0.65c-0.25,0.21-0.5,0.41-0.71,0.57c-0.27,0.18-0.55,0.35-0.78,0.49c-0.27,0.14-0.54,0.26-0.8,0.38      c-0.52-1.23-1.09-2.35-1.69-3.35c-0.87-1.46-1.7-2.57-2.59-3.49c-0.27-0.28-0.55-0.56-0.83-0.82c-0.29-0.27-0.59-0.52-0.9-0.77      c-0.48-0.39-1.04-0.77-1.78-1.19c-1.4-0.8-2.85-1.34-4.3-1.6c-0.85-0.16-1.6-0.22-2.31-0.21c-1.1,0.02-2.12,0.21-3.05,0.54      c-0.99,0.36-1.83,0.91-2.49,1.64c-0.56,0.61-0.95,1.4-1.15,2.27c-0.28,1.26-0.05,2.65,0.69,4.13c1.16,2.34,3.34,4.3,6.47,5.84      c1.23,0.6,2.57,1.1,4,1.49c1.32,0.36,2.69,0.59,4.19,0.71c0.15,0.01,0.29,0.02,0.54,0.02c0.2,0.02,0.41,0.02,0.72,0.02      c0.35,0,0.72-0.01,1.09-0.02c0.19-0.01,0.39-0.02,0.58-0.03c0.23,0.76,0.44,1.55,0.63,2.33c0.19,0.97,0.35,1.97,0.47,3.02      c0.05,0.64,0.08,1.28,0.08,1.87c-0.03,0.46-0.07,0.92-0.11,1.32c-0.06,0.36-0.13,0.71-0.22,1.07c-0.08,0.34-0.19,0.67-0.28,0.96      l-0.1,0.29c-0.06,0.18-0.13,0.36-0.21,0.53l-0.43,0.92c-0.09,0.18-0.18,0.35-0.28,0.52l-0.44,0.73      c-0.27,0.4-0.54,0.79-0.83,1.17c-0.25,0.33-0.52,0.65-0.77,0.94l-0.22,0.25c-0.14,0.15-0.28,0.31-0.43,0.46l-0.65,0.64      c-0.29,0.26-0.57,0.51-0.87,0.76c-0.27,0.23-0.55,0.45-0.79,0.63c-0.59,0.39-1.19,0.76-1.78,1.1c-0.31,0.16-0.63,0.31-0.95,0.46      c-0.28,0.12-0.57,0.23-0.86,0.34l-0.34,0.12c-0.35,0.12-0.69,0.24-1.04,0.34c-0.45,0.13-0.9,0.24-1.34,0.35      c-0.42,0.09-0.85,0.19-1.28,0.25c-0.45,0.07-0.89,0.12-1.38,0.16c-0.72,0.04-1.45,0.08-2.17,0.1c-0.66,0.02-1.32,0.01-1.94-0.01      c-1.22-0.09-2.29-0.2-3.24-0.34c-1.33-0.24-2.5-0.52-3.55-0.83c-0.67-0.22-1.32-0.47-1.94-0.73c-0.23-0.11-0.46-0.23-0.68-0.34      c0.43-0.57,0.84-1.17,1.22-1.77c0.4-0.65,0.75-1.29,1.05-1.94c0.26-0.56,0.5-1.17,0.77-1.98c0.22-0.64,0.4-1.32,0.55-2.02      c0.15-0.7,0.3-1.46,0.36-2.22c0.1-1.3,0.15-2.84-0.18-4.39c-0.14-0.67-0.34-1.46-0.7-2.19c-0.36-0.74-0.77-1.39-1.22-1.97      c-0.96-1.22-2.4-2.03-3.84-2.15c-0.52-0.04-1.08-0.02-1.57,0.08c-0.35,0.07-0.72,0.15-1.09,0.31c-0.3,0.13-0.58,0.3-0.85,0.47      c-0.61,0.39-1.19,0.92-1.78,1.63c-0.46,0.55-0.87,1.15-1.24,1.79c-0.68,1.18-1.19,2.53-1.51,4.02      c-0.32,1.45-0.46,2.88-0.41,4.25c0.05,1.66,0.38,3.23,0.93,4.56c0.25,0.6,0.57,1.31,0.97,1.96c0.44,0.71,0.96,1.32,1.37,1.77      c0.11,0.13,0.23,0.25,0.34,0.37c-0.16,0.12-0.31,0.23-0.47,0.35c-0.69,0.47-1.4,0.91-2.14,1.31c-0.83,0.41-1.67,0.77-2.57,1.11      c-0.76,0.27-1.58,0.51-2.47,0.73c-0.76,0.16-1.58,0.28-2.46,0.37c-0.74,0.05-1.72,0.11-2.66,0.09c-0.68-0.04-1.35-0.13-2-0.23      c-0.43-0.08-0.86-0.16-1.28-0.27c-0.38-0.09-0.76-0.21-1.12-0.32c-0.63-0.21-1.25-0.45-1.82-0.71      c-0.83-0.42-1.64-0.87-2.39-1.34c-0.58-0.39-1.15-0.8-1.68-1.23c-0.3-0.26-0.61-0.52-0.89-0.81c-0.34-0.35-0.67-0.69-0.99-1.04      c-0.96-1.06-1.79-2.08-2.54-3.11c-0.44-0.65-0.87-1.36-1.33-2.2c-0.28-0.56-0.56-1.13-0.83-1.7c-0.27-0.58-0.51-1.17-0.73-1.74      c-0.48-1.33-0.91-2.77-1.34-4.5c-0.18-0.78-0.35-1.57-0.47-2.36c-0.14-0.89-0.25-1.77-0.34-2.65c-0.09-1.06-0.15-2.13-0.18-3.19      c-0.03-1,0-2,0.04-2.99c0.1-2.16,0.29-4.08,0.57-5.85c0.32-1.72,0.76-3.47,1.33-5.32c0.36-1.06,0.72-2.13,1.14-3.17      c0.43-1.08,0.89-2.15,1.36-3.19c0.43-0.89,0.87-1.78,1.34-2.65c0.46-0.85,0.97-1.69,1.46-2.5c0.61-0.93,1.23-1.85,1.87-2.76      c0.66-0.93,1.38-1.82,2.07-2.66c0.59-0.69,1.18-1.36,1.8-2.02c0.63-0.67,1.28-1.31,1.92-1.92c0.64-0.58,1.29-1.15,1.96-1.69      c0.68-0.54,1.37-1.06,2.06-1.55l0.25-0.17c0.5-0.34,1-0.68,1.52-0.98c0.61-0.35,1.22-0.7,1.81-1.02c0.9-0.45,1.8-0.89,2.71-1.31      c0.76-0.34,1.54-0.64,2.31-0.93l0.31-0.11c0.71-0.25,1.43-0.51,2.16-0.72c0.78-0.23,1.56-0.43,2.32-0.61      c1.26-0.27,2.3-0.46,3.27-0.6c1.05-0.15,2.11-0.27,3.16-0.37c2.33-0.18,4.81-0.22,7.79-0.11c1.38,0.07,2.85,0.15,4.31,0.31      c1.49,0.16,2.88,0.36,4.22,0.59c1.45,0.28,2.9,0.64,4.43,1.1l0.71,0.23c1.31,0.42,2.61,0.93,3.95,1.53      c1.35,0.66,2.78,1.42,4.37,2.34c1.49,0.87,2.85,1.69,4.13,2.52v0c2.03,1.35,4.14,2.94,6.45,4.85c0.89,0.76,1.75,1.5,2.55,2.3      c0.86,0.85,1.68,1.72,2.5,2.6l1.07,1.18c1.57,1.76,3.18,3.74,5.05,6.23c0.54,0.72,1.08,1.45,1.61,2.18l0.69,0.94      c0.76,1.04,1.52,2.07,2.26,3.12l2.55,3.63c1.52,2.16,3.01,4.35,4.49,6.54c1.3,1.93,2.67,4.02,3.85,6.2      c0.13,0.24,0.25,0.49,0.34,0.7c0.03,0.09,0.06,0.19,0.07,0.23l0.04,0.25l0.81-0.11l-0.83,0.28l-0.17,0.35      c-0.1,0.14-0.19,0.28-0.25,0.36c-0.12,0.13-0.24,0.25-0.34,0.35c-0.12,0.11-0.24,0.21-0.33,0.28c-0.25,0.17-0.51,0.33-0.75,0.46      c-1.33,0.69-2.77,1.25-4.17,1.8c-0.48,0.19-0.97,0.38-1.45,0.57l-0.31,0.12c-0.8,0.32-1.62,0.65-2.4,1.11      c-0.48,0.28-0.84,0.56-1.14,0.89c-0.53,0.57-0.87,1.37-0.97,2.23c-0.16,1.43,0.06,2.89,0.29,4.13c0.24,1.26,0.54,2.57,0.88,3.9      l0.33,1.28c0.55,2.09,1.09,4.18,1.58,6.28c0.65,2.87,1.05,5.22,1.26,7.39c0.11,1.31,0.15,2.46,0.12,3.51      c-0.04,0.63-0.1,1.24-0.2,1.84c-0.1,0.51-0.22,1.01-0.37,1.48c-0.18,0.55-0.4,1.08-0.63,1.58c-0.17,0.35-0.36,0.68-0.55,0.98      c-0.23,0.34-0.47,0.66-0.7,0.95c-0.24,0.28-0.5,0.54-0.73,0.77c-0.39,0.34-0.8,0.66-1.2,0.95c-0.58,0.39-1.17,0.74-1.76,1.07      c-0.68,0.34-1.32,0.63-1.93,0.86c-0.68,0.23-1.36,0.42-2.03,0.58c-1.13,0.24-2.2,0.41-3.25,0.52c-1.39,0.12-2.68,0.17-3.95,0.18      c-1.36,0.01-2.7-0.03-4.04-0.09c-2.5-0.11-4.99-0.27-7.49-0.44l-1.6-0.11c-1.91-0.13-3.81-0.27-5.77-0.34      c-0.59-0.02-1.18-0.03-1.78-0.04c-0.52,0-1.19,0.05-1.8,0.34c-0.76,0.37-1.38,0.95-1.82,1.72c-0.36,0.63-0.65,1.33-0.85,2.07      c-0.18,0.65-0.34,1.31-0.47,1.98c-0.51,2.69-0.84,5.41-1.13,7.96c-0.29,2.57-0.53,5.16-0.7,7.69l-0.29,4.28      c-0.07,1.04-0.14,2.09-0.27,3.12c-0.07,0.58,0.09,1.16,0.46,1.63c0.37,0.47,0.93,0.78,1.51,0.85l0.24,0.01      c1.12,0,2.07-0.85,2.22-1.98c0.12-0.93,0.18-1.87,0.25-2.8l0.25-3.75c0.2-3.02,0.4-5.31,0.64-7.44l0.05-0.43      c0.26-2.39,0.54-4.87,0.96-7.26c0.16-0.91,0.38-1.97,0.68-2.98c0.06-0.17,0.13-0.33,0.17-0.44c0.02-0.04,0.04-0.08,0.06-0.12      c0.51-0.01,1.02,0.01,1.54,0.03l0.32,0.01c1.6,0.07,3.19,0.18,4.78,0.29l1.9,0.13c2.64,0.18,5.28,0.36,7.92,0.46      c2.52,0.1,5.22,0.16,7.94-0.07c3.19-0.27,5.85-0.89,8.13-1.9c1.26-0.56,2.46-1.23,3.55-2.01c0.68-0.48,1.21-0.91,1.66-1.34      c0.52-0.5,1-1.02,1.46-1.61c0.79-1.02,1.46-2.21,1.97-3.56c0.5-1.3,0.83-2.62,0.99-3.92c0.27-2.25,0.19-4.67-0.27-7.85      c-0.4-2.82-1.04-5.59-1.56-7.69c-0.28-1.14-0.58-2.28-0.88-3.42c-0.35-1.34-0.71-2.68-1.02-4.03c-0.23-1.05-0.5-2.26-0.62-3.43      c-0.03-0.36-0.05-0.73-0.04-1.05c0-0.01,0-0.03,0-0.04c0.03-0.02,0.07-0.04,0.1-0.05c0.64-0.33,1.31-0.6,1.98-0.87l3.1-1.24      c0.85-0.35,1.74-0.71,2.58-1.15c0.92-0.48,1.98-1.11,2.86-2.07c1.23-1.36,1.82-2.87,1.71-4.37      C202.16,81.85,201.43,80.58,200.73,79.36z M128.26,85.99l0.22-0.04c0.11-0.01,0.22-0.01,0.31-0.01c0.02,0,0.03,0,0.05,0      c0.08,0.03,0.16,0.06,0.17,0.06h0l0.37,0.24c0.16,0.18,0.3,0.37,0.41,0.52c0.11,0.17,0.21,0.34,0.28,0.47      c0.09,0.18,0.17,0.36,0.22,0.49c0.09,0.26,0.17,0.52,0.23,0.75c0.09,0.42,0.15,0.83,0.19,1.22c0.03,0.42,0.03,0.83,0.02,1.23      c-0.03,0.59-0.08,1.18-0.16,1.73c-0.16,0.81-0.34,1.57-0.56,2.28c-0.23,0.67-0.48,1.32-0.76,1.92c-0.25,0.48-0.52,0.95-0.8,1.39      c-0.3,0.45-0.61,0.9-0.94,1.33c-0.06-0.06-0.11-0.11-0.16-0.16c-0.29-0.32-0.55-0.65-0.77-0.94c-0.15-0.25-0.3-0.5-0.42-0.71      c-0.14-0.29-0.27-0.59-0.38-0.84c-0.14-0.39-0.26-0.78-0.35-1.14c-0.08-0.42-0.15-0.84-0.2-1.23c-0.04-0.45-0.04-0.9-0.04-1.33      c0.03-0.62,0.09-1.24,0.18-1.83c0.1-0.53,0.22-1.05,0.36-1.54c0.14-0.43,0.31-0.85,0.47-1.24c0.18-0.36,0.37-0.71,0.56-1.02      c0.19-0.28,0.39-0.55,0.57-0.78c0.15-0.16,0.3-0.33,0.42-0.45c0.11-0.09,0.22-0.18,0.27-0.23L128.26,85.99z M130.06,64.8      c-0.04-0.01-0.09-0.01-0.15-0.02l-0.15-0.05c-0.11-0.06-0.23-0.12-0.3-0.16c-0.07-0.05-0.13-0.09-0.17-0.12      c-0.13-0.11-0.25-0.23-0.33-0.31c-0.1-0.12-0.19-0.24-0.26-0.33c-0.1-0.15-0.19-0.3-0.25-0.42c-0.12-0.25-0.22-0.5-0.32-0.71      c-0.12-0.33-0.23-0.67-0.32-0.97c0.19,0.14,0.37,0.29,0.55,0.43c0.21,0.2,0.42,0.4,0.59,0.57c0.16,0.18,0.31,0.36,0.42,0.51      c0.11,0.16,0.21,0.33,0.28,0.44c0.08,0.17,0.16,0.34,0.21,0.46c0.05,0.15,0.1,0.31,0.13,0.4c0.02,0.12,0.04,0.23,0.06,0.28      L130.06,64.8z M130.12,65.63l0.04-0.53l0.02,0.01L130.12,65.63z M144.58,70.9L144.58,70.9l0.87,0.25      c0.1-0.07,0.21-0.13,0.28-0.17c0.08-0.04,0.15-0.07,0.2-0.09c0.19-0.07,0.38-0.12,0.53-0.16l0.49-0.09      c0.3-0.02,0.6-0.04,0.83-0.05c0.33,0.02,0.66,0.05,0.95,0.08c0.24,0.04,0.48,0.09,0.71,0.15c0.26,0.06,0.5,0.14,0.71,0.2      c0.37,0.14,0.73,0.28,1.04,0.42c0.29,0.15,0.58,0.3,0.87,0.46c0.16,0.09,0.32,0.19,0.54,0.33c0.34,0.25,0.67,0.5,0.95,0.73      c0.33,0.31,0.65,0.62,0.94,0.91c0.23,0.26,0.46,0.53,0.67,0.8c0.21,0.27,0.41,0.54,0.59,0.79c0.42,0.64,0.81,1.29,1.16,1.93      c0.16,0.31,0.31,0.63,0.46,0.95c-0.08,0-0.17,0-0.25,0l-0.22-0.01c-0.26-0.01-0.51-0.03-0.78-0.05      c-0.48-0.04-0.95-0.11-1.39-0.18c-0.82-0.16-1.62-0.36-2.41-0.61c-0.76-0.26-1.51-0.56-2.22-0.87      c-0.67-0.33-1.28-0.67-1.84-1.02c-0.31-0.21-0.6-0.43-0.86-0.63c-0.34-0.3-0.67-0.61-0.95-0.9c-0.18-0.22-0.36-0.44-0.5-0.62      c-0.14-0.21-0.27-0.43-0.37-0.59c-0.09-0.19-0.18-0.39-0.25-0.53c-0.04-0.12-0.08-0.24-0.1-0.3c-0.02-0.1-0.04-0.19-0.04-0.22      l0-0.29l-0.81-0.12l0.89-0.08L144.58,70.9L144.58,70.9z M123.59,59.06l0.01-0.04c0,0,0,0,0,0c0,0,0,0,0,0l0,0      c0.01,0,0.02,0,0.03,0l0,0.04L123.59,59.06z M146.76,160.45L146.76,160.45L146.76,160.45L146.76,160.45z" />
        </g>
      </g>
      <g>
        <g>
          <path class="st3"
            d="M46.32,290.54c3,0,4.85,1.41,4.85,2.8c0,0.72-0.6,1.19-1.41,1.23c-0.44-1.21-1.51-1.85-3.34-1.85      c-2.28,0-4.29,1.47-4.29,4.79c0,3.3,2.01,4.83,4.29,4.83c1.95,0,3.1-0.72,3.62-1.97c0.72,0.06,1.21,0.62,1.21,1.31      c0,1.37-1.93,2.82-4.92,2.82c-3.54,0-6.71-2.26-6.71-6.99S42.76,290.54,46.32,290.54z" />
          <path class="st3"
            d="M60.02,294.08c2.54,0,5.04,1.69,5.04,5.22c0,3.54-2.48,5.2-5.04,5.2c-2.54,0-5.04-1.65-5.04-5.2      C54.99,295.78,57.48,294.08,60.02,294.08z M60.02,302.65c1.61,0,2.82-1.13,2.82-3.36c0-2.24-1.21-3.34-2.82-3.34      s-2.82,1.11-2.82,3.34C57.2,301.52,58.41,302.65,60.02,302.65z" />
          <path class="st3"
            d="M69.09,295.25c0-0.72,0.32-1.01,1.03-1.01h0.12c0.72,0,1.03,0.28,1.03,1.01v0.85      c0.42-0.91,1.45-2.01,3.1-2.01c1.87,0,3.58,1.05,3.58,4.03v5.22c0,0.72-0.3,1.01-1.05,1.01h-0.16c-0.66,0-0.99-0.28-0.99-1.01      v-4.92c0-1.81-0.85-2.38-2.09-2.38c-1.45,0-2.38,1.25-2.38,3.16v4.13c0,0.72-0.3,1.01-1.05,1.01h-0.12      c-0.75,0-1.03-0.28-1.03-1.01V295.25z" />
          <path class="st3"
            d="M82.48,301.6c0.4,0.56,1.45,1.21,3.18,1.21c1.31,0,1.99-0.54,1.99-1.25c0-0.75-0.58-1.09-2.54-1.57      c-2.24-0.54-3.08-1.37-3.08-2.76c0-2.08,2.03-3.16,4.01-3.16c2.05,0,3.2,0.71,3.2,1.63c0,0.46-0.3,0.75-0.83,0.95      c-0.26-0.38-1.13-0.81-2.28-0.81c-1.09,0-1.89,0.36-1.89,1.13c0,0.69,0.44,1.01,2.2,1.45c2.38,0.56,3.38,1.43,3.38,3      c0,1.91-1.91,3.06-4.27,3.06c-2.21,0-3.77-0.62-3.77-1.69C81.79,302.18,82.1,301.82,82.48,301.6z" />
          <path class="st3"
            d="M93.56,295.96c0-1.27,0.14-1.69,1.11-1.69s1.09,0.42,1.09,1.71v4.07c0,1.89,0.85,2.56,2.11,2.56      c1.75,0,2.34-1.65,2.34-3.26v-3.32c0-1.01-0.18-1.75,1.05-1.75h0.14c1.05,0,1.01,0.56,1.01,1.73v7.33c0,0.71,0,1.01-1.09,1.01      c-0.81,0-1.11-0.3-1.11-1.01v-0.81c-0.38,0.95-1.49,1.93-3.2,1.93c-1.89,0-3.44-1.11-3.44-3.99V295.96z" />
          <path class="st3"
            d="M107.17,291.14c0-0.71,0.28-1.01,1.03-1.01h0.12c0.72,0,1.05,0.3,1.05,1.01v12.19      c0,0.72-0.32,1.01-1.03,1.01h-0.14c-0.77,0-1.03-0.28-1.03-1.01V291.14z" />
          <path class="st3"
            d="M114.16,296.24c-0.58,0-0.99-0.18-0.99-0.89c0-0.7,0.4-0.91,1.01-0.91h0.85v-1.69      c0-0.71,0.34-1.03,1.01-1.03h0.16c0.66,0,1.01,0.3,1.01,0.99v1.73h2.38c0.71,0,1.03,0.34,1.03,0.91c0,0.62-0.36,0.89-1.07,0.89      h-2.34v4.43c0,1.57,0.64,2.08,1.73,2.08c0.42,0,1.11-0.16,1.37-0.4c0.3,0.16,0.48,0.5,0.48,0.91c0,0.73-1.05,1.23-2.44,1.23      c-1.91,0-3.32-0.97-3.32-3.63v-4.61H114.16z" />
          <path class="st3"
            d="M128.81,294.08c2.54,0,5.04,1.69,5.04,5.22c0,3.54-2.48,5.2-5.04,5.2c-2.54,0-5.04-1.65-5.04-5.2      C123.77,295.78,126.27,294.08,128.81,294.08z M128.81,302.65c1.61,0,2.82-1.13,2.82-3.36c0-2.24-1.21-3.34-2.82-3.34      s-2.82,1.11-2.82,3.34C125.99,301.52,127.2,302.65,128.81,302.65z" />
          <path class="st3"
            d="M137.87,295.86c0-1.23,0.04-1.61,1.11-1.61c1.03,0,1.05,0.89,1.05,1.85c0.44-0.97,1.35-1.97,2.66-1.97      c1.09,0,1.75,0.52,1.75,1.29c0,0.58-0.22,0.91-0.46,1.13c-0.3-0.2-0.72-0.46-1.39-0.46c-1.71,0-2.52,1.55-2.52,3.42v2.7      c0,1.03,0.08,2.13-1.03,2.13h-0.14c-1.05,0-1.03-0.48-1.03-1.61V295.86z" />
          <path class="st3"
            d="M148.06,291.39c0-0.76,0.56-1.31,1.31-1.31s1.33,0.54,1.33,1.31c0,0.79-0.58,1.29-1.33,1.29      S148.06,292.17,148.06,291.39z M148.3,295.23c0-0.69,0.3-0.99,1.03-0.99h0.1c0.72,0,1.03,0.3,1.03,0.99v8.1      c0,0.71-0.3,1.01-1.03,1.01h-0.1c-0.74,0-1.03-0.3-1.03-1.01V295.23z" />
          <path class="st3"
            d="M159.82,294.08c2.54,0,5.04,1.69,5.04,5.22c0,3.54-2.48,5.2-5.04,5.2c-2.54,0-5.04-1.65-5.04-5.2      C154.79,295.78,157.29,294.08,159.82,294.08z M159.82,302.65c1.61,0,2.82-1.13,2.82-3.36c0-2.24-1.21-3.34-2.82-3.34      s-2.82,1.11-2.82,3.34C157,301.52,158.21,302.65,159.82,302.65z" />
          <path class="st3"
            d="M177.03,291.73c0-0.73,0.28-1.03,1.03-1.03h0.22c0.74,0,1.07,0.3,1.07,1.03v11.6      c0,0.71-0.32,1.01-1.07,1.01h-0.22c-0.74,0-1.03-0.3-1.03-1.01V291.73z" />
          <path class="st3"
            d="M184.48,295.25c0-0.72,0.32-1.01,1.03-1.01h0.12c0.72,0,1.03,0.28,1.03,1.01v0.85      c0.42-0.91,1.45-2.01,3.1-2.01c1.87,0,3.58,1.05,3.58,4.03v5.22c0,0.72-0.3,1.01-1.05,1.01h-0.16c-0.66,0-0.99-0.28-0.99-1.01      v-4.92c0-1.81-0.85-2.38-2.09-2.38c-1.45,0-2.38,1.25-2.38,3.16v4.13c0,0.72-0.3,1.01-1.05,1.01h-0.12      c-0.75,0-1.03-0.28-1.03-1.01V295.25z" />
          <path class="st3"
            d="M197.89,296.26c-0.6,0-0.91-0.2-0.91-0.85c0-0.71,0.28-0.93,0.91-0.93h0.91v-0.73      c0-2.56,1.57-3.91,3.91-3.91c1.33,0,2.38,0.62,2.38,1.61c0,0.44-0.24,0.87-0.7,1.05c-0.26-0.38-0.77-0.71-1.61-0.71      c-1.19,0-1.81,0.95-1.81,2.48v0.2h2.2c0.69,0,0.99,0.28,0.99,0.93s-0.34,0.85-0.99,0.85h-2.17v7.15c0,0.73-0.3,0.99-1.03,0.99      h-0.1c-0.77,0-1.05-0.26-1.05-0.99v-7.15H197.89z" />
          <path class="st3"
            d="M211.17,298.05c1.33,0,1.97,0.28,2.52,0.44v-0.62c0-1.43-0.81-1.99-2.38-1.99c-1.19,0-2.24,0.58-2.78,1.23      c-0.46-0.14-0.87-0.38-0.87-0.95c0-1.07,1.59-2.05,3.72-2.05c2.94,0,4.39,1.43,4.39,4.11v2.98c0,1.53,0.28,2.01,0.83,2.21      c-0.14,0.5-0.62,0.97-1.37,0.97c-0.89,0-1.39-0.62-1.47-1.53c0,0,0-0.02-0.02-0.02c-0.46,0.71-1.43,1.65-3.14,1.65      c-2.12,0-3.5-1.19-3.5-3.08C207.1,299.38,208.75,298.05,211.17,298.05z M211.09,302.83c1.45,0,2.6-1.05,2.6-2.38v-0.28      c-0.6-0.26-1.41-0.48-2.3-0.48c-1.41,0-2.21,0.58-2.21,1.59C209.17,302.24,209.9,302.83,211.09,302.83z" />
          <path class="st3"
            d="M220.45,295.25c0-0.72,0.32-1.01,1.03-1.01h0.12c0.72,0,1.03,0.28,1.03,1.01v0.85      c0.42-0.91,1.45-2.01,3.1-2.01c1.87,0,3.59,1.05,3.59,4.03v5.22c0,0.72-0.3,1.01-1.05,1.01h-0.16c-0.66,0-0.99-0.28-0.99-1.01      v-4.92c0-1.81-0.85-2.38-2.1-2.38c-1.45,0-2.38,1.25-2.38,3.16v4.13c0,0.72-0.3,1.01-1.05,1.01h-0.12      c-0.74,0-1.03-0.28-1.03-1.01V295.25z" />
          <path class="st3"
            d="M233.83,296.24c-0.58,0-0.99-0.18-0.99-0.89c0-0.7,0.4-0.91,1.01-0.91h0.85v-1.69      c0-0.71,0.34-1.03,1.01-1.03h0.16c0.67,0,1.01,0.3,1.01,0.99v1.73h2.38c0.71,0,1.03,0.34,1.03,0.91c0,0.62-0.36,0.89-1.07,0.89      h-2.34v4.43c0,1.57,0.64,2.08,1.73,2.08c0.42,0,1.11-0.16,1.37-0.4c0.3,0.16,0.48,0.5,0.48,0.91c0,0.73-1.05,1.23-2.44,1.23      c-1.91,0-3.32-0.97-3.32-3.63v-4.61H233.83z" />
          <path class="st3"
            d="M244.06,291.39c0-0.76,0.56-1.31,1.31-1.31s1.33,0.54,1.33,1.31c0,0.79-0.58,1.29-1.33,1.29      S244.06,292.17,244.06,291.39z M244.3,295.23c0-0.69,0.3-0.99,1.03-0.99h0.1c0.72,0,1.03,0.3,1.03,0.99v8.1      c0,0.71-0.3,1.01-1.03,1.01h-0.1c-0.74,0-1.03-0.3-1.03-1.01V295.23z" />
          <path class="st3"
            d="M251.45,291.14c0-0.71,0.28-1.01,1.03-1.01h0.12c0.72,0,1.05,0.3,1.05,1.01v12.19      c0,0.72-0.32,1.01-1.03,1.01h-0.14c-0.77,0-1.03-0.28-1.03-1.01V291.14z" />
        </g>
      </g>
      <path class="st2"
        d="M125.46,109.81c-2.97,7.61-13.11,9.7-20.26,10.17c-5.09,0.34-10.24,0.08-15.29,0.85    c-4.28,0.65-8.73,2.75-10.58,6.91c-1.91,4.28-0.16,9.11,3.38,11.95c3.52,2.83,8.13,3.96,12.55,4.36    c8.62,0.78,17.49-2.13,23.99-7.83c7.26-6.36,11.3-16.2,10.78-25.81c-0.16-2.88-4.66-2.9-4.5,0c0.41,7.51-2.22,15.06-7.36,20.59    c-5.21,5.61-12.71,8.7-20.34,8.67c-3.79-0.01-7.95-0.68-11.22-2.7c-2.85-1.76-4.87-5.37-2.58-8.4c2.42-3.21,7-3.5,10.67-3.69    c4.69-0.24,9.41-0.14,14.07-0.73c8.45-1.07,17.71-4.61,21.04-13.14c0.44-1.13-0.49-2.47-1.57-2.77    C126.96,107.89,125.91,108.67,125.46,109.81L125.46,109.81z" />
    </g>
  </g>
</svg>