<svg width="16" height="18" viewBox="0 0 16 18" fill="none" xmlns="http://www.w3.org/2000/svg">
<path d="M14.434 3.49333C14.3613 3.43097 14.2761 3.38499 14.184 3.35853C14.092 3.33208 13.9953 3.32575 13.9007 3.34L5.23399 4.67333C5.07616 4.69728 4.93216 4.77706 4.82817 4.89817C4.72419 5.01929 4.66711 5.1737 4.66732 5.33333V12.2333C4.35583 12.0812 4.01398 12.0014 3.66732 12C3.20583 12 2.7547 12.1368 2.37099 12.3932C1.98727 12.6496 1.6882 13.014 1.5116 13.4404C1.335 13.8668 1.28879 14.3359 1.37882 14.7885C1.46885 15.2412 1.69108 15.6569 2.0174 15.9832C2.34373 16.3096 2.75949 16.5318 3.21211 16.6218C3.66473 16.7119 4.13389 16.6657 4.56025 16.489C4.98661 16.3124 5.35102 16.0134 5.60741 15.6297C5.8638 15.2459 6.00065 14.7948 6.00065 14.3333V9.24L13.334 8.11333V10.9C13.0225 10.7479 12.6806 10.6681 12.334 10.6667C11.8725 10.6667 11.4214 10.8035 11.0377 11.0599C10.6539 11.3163 10.3549 11.6807 10.1783 12.1071C10.0017 12.5334 9.95545 13.0026 10.0455 13.4552C10.1355 13.9078 10.3577 14.3236 10.6841 14.6499C11.0104 14.9762 11.4262 15.1985 11.8788 15.2885C12.3314 15.3785 12.8006 15.3323 13.2269 15.1557C13.6533 14.9791 14.0177 14.68 14.2741 14.2963C14.5305 13.9126 14.6673 13.4615 14.6673 13V4C14.6673 3.9037 14.6465 3.80855 14.6062 3.72109C14.5659 3.63362 14.5072 3.55592 14.434 3.49333V3.49333ZM3.66732 15.3333C3.46954 15.3333 3.2762 15.2747 3.11175 15.1648C2.9473 15.0549 2.81913 14.8987 2.74344 14.716C2.66775 14.5333 2.64795 14.3322 2.68653 14.1382C2.72512 13.9443 2.82036 13.7661 2.96021 13.6262C3.10006 13.4864 3.27825 13.3911 3.47223 13.3525C3.66621 13.314 3.86728 13.3338 4.05 13.4095C4.23273 13.4851 4.38891 13.6133 4.49879 13.7778C4.60867 13.9422 4.66732 14.1356 4.66732 14.3333C4.66732 14.5985 4.56196 14.8529 4.37443 15.0404C4.18689 15.228 3.93254 15.3333 3.66732 15.3333ZM12.334 14C12.1362 14 11.9429 13.9413 11.7784 13.8315C11.614 13.7216 11.4858 13.5654 11.4101 13.3827C11.3344 13.2 11.3146 12.9989 11.3532 12.8049C11.3918 12.6109 11.487 12.4327 11.6269 12.2929C11.7667 12.153 11.9449 12.0578 12.1389 12.0192C12.3329 11.9806 12.5339 12.0004 12.7167 12.0761C12.8994 12.1518 13.0556 12.28 13.1655 12.4444C13.2753 12.6089 13.334 12.8022 13.334 13C13.334 13.2652 13.2286 13.5196 13.0411 13.7071C12.8536 13.8946 12.5992 14 12.334 14ZM13.334 6.76L6.00065 7.88666V5.88667L13.334 4.78V6.76Z" fill="#333333"/>
</svg>
