<svg xmlns="http://www.w3.org/2000/svg" width="176.302001953125" height="64.58399963378906"
  viewBox="0 0 176.302 64.584">
  <g id="Group_17" data-name="Group 17" transform="translate(-91.128 -62.512)">
    <path id="Path_17" data-name="Path 17"
      d="M115.188,70.837a2.031,2.031,0,0,1,.666,1.508,3.5,3.5,0,0,1-.357,1.28L105.77,95.744a2.811,2.811,0,0,1-.871,1.075,2.376,2.376,0,0,1-1.232.462,2.312,2.312,0,0,1-1.508-.309,2.556,2.556,0,0,1-1.052-1.228L91.38,73.626a4.148,4.148,0,0,1-.252-1.28,2.068,2.068,0,0,1,.661-1.485,2.372,2.372,0,0,1,1.742-.666,2.561,2.561,0,0,1,1.385.385,2.6,2.6,0,0,1,.971,1.152l7.733,17.973,7.728-17.973a2.332,2.332,0,0,1,2.2-1.537A2.266,2.266,0,0,1,115.188,70.837Z"
      transform="translate(0 28.877)" fill="#2d2e2c" class="svg-elem-1"></path>
    <path id="Path_18" data-name="Path 18"
      d="M101.691,96.565a2.335,2.335,0,0,1-1.765.719,2.264,2.264,0,0,1-1.713-.719,2.41,2.41,0,0,1-.695-1.742V72.657a2.417,2.417,0,0,1,.695-1.742,2.281,2.281,0,0,1,1.713-.719,2.352,2.352,0,0,1,1.765.719,2.413,2.413,0,0,1,.69,1.742V94.823A2.4,2.4,0,0,1,101.691,96.565Z"
      transform="translate(24.018 28.885)" fill="#2d2e2c" class="svg-elem-2"></path>
    <path id="Path_19" data-name="Path 19"
      d="M124.9,68.51a2.384,2.384,0,0,1,.69,1.765v32.972a2.421,2.421,0,0,1-.69,1.742,2.356,2.356,0,0,1-1.765.714,2.3,2.3,0,0,1-1.742-.69,2.432,2.432,0,0,1-.666-1.765v-1.437a10.322,10.322,0,0,1-3.612,3.126,10.217,10.217,0,0,1-4.992,1.28,11.5,11.5,0,0,1-6.3-1.794,12.588,12.588,0,0,1-4.454-4.992,15.58,15.58,0,0,1-1.637-7.2,15.743,15.743,0,0,1,1.613-7.19,12.383,12.383,0,0,1,4.426-4.992,11.683,11.683,0,0,1,11.211-.666,10.747,10.747,0,0,1,3.74,2.917V70.275a2.424,2.424,0,0,1,.666-1.765,2.3,2.3,0,0,1,1.742-.69A2.392,2.392,0,0,1,124.9,68.51Zm-7.937,31.973a8.326,8.326,0,0,0,2.917-3.379,11.716,11.716,0,0,0,0-9.7,8.258,8.258,0,0,0-2.917-3.407,8.059,8.059,0,0,0-8.551,0,8.258,8.258,0,0,0-2.917,3.407,11.765,11.765,0,0,0,0,9.7,8.326,8.326,0,0,0,2.917,3.379,8.059,8.059,0,0,0,8.551,0Z"
      transform="translate(32.35 19.951)" fill="#2d2e2c" class="svg-elem-3"></path>
    <path id="Path_20" data-name="Path 20"
      d="M131,84.672a2.465,2.465,0,0,1-1.689.638H111.285a8.9,8.9,0,0,0,2.841,5.991,8.7,8.7,0,0,0,6.067,2.251,9.519,9.519,0,0,0,3.992-.714,9.941,9.941,0,0,0,2.712-1.846,2.918,2.918,0,0,1,1.489-.457,1.93,1.93,0,0,1,1.456.614,1.993,1.993,0,0,1,.59,1.432,2.533,2.533,0,0,1-1.023,1.946,12.071,12.071,0,0,1-3.94,2.508,12.993,12.993,0,0,1-5.02,1.023,14.822,14.822,0,0,1-7.3-1.742,12.083,12.083,0,0,1-4.863-4.863,14.383,14.383,0,0,1-1.713-7.067,15.559,15.559,0,0,1,1.765-7.552A12.73,12.73,0,0,1,113,71.848a12,12,0,0,1,12.363-.052,12.76,12.76,0,0,1,4.606,4.659,13.276,13.276,0,0,1,1.794,6.657A2.181,2.181,0,0,1,131,84.672Zm-16.741-8.451a7.955,7.955,0,0,0-2.765,5h15.1v-.409a6.266,6.266,0,0,0-2.432-4.459,7.718,7.718,0,0,0-4.939-1.737A7.94,7.94,0,0,0,114.255,76.221Z"
      transform="translate(58.074 28.543)" fill="#2d2e2c" class="svg-elem-4"></path>
    <path id="Path_21" data-name="Path 21"
      d="M137.95,71.053a2.457,2.457,0,0,1,.695,1.818V95.089a2.409,2.409,0,0,1-.695,1.742,2.529,2.529,0,0,1-3.507.024,2.433,2.433,0,0,1-.661-1.765V93.756a10.944,10.944,0,0,1-3.636,3.05,10.269,10.269,0,0,1-4.968,1.252,11.622,11.622,0,0,1-6.324-1.789,12.323,12.323,0,0,1-4.454-5,16.831,16.831,0,0,1,0-14.381,12.373,12.373,0,0,1,4.43-5,11.3,11.3,0,0,1,6.2-1.789,11.436,11.436,0,0,1,5.044,1.128,10.47,10.47,0,0,1,3.712,2.865V72.871a2.541,2.541,0,0,1,.661-1.794,2.278,2.278,0,0,1,1.742-.719A2.381,2.381,0,0,1,137.95,71.053Zm-7.933,21.271a8.331,8.331,0,0,0,2.917-3.379,10.946,10.946,0,0,0,1.052-4.863,10.819,10.819,0,0,0-1.052-4.811,8.51,8.51,0,0,0-2.917-3.407,7.493,7.493,0,0,0-4.278-1.251,7.607,7.607,0,0,0-4.273,1.228,8.265,8.265,0,0,0-2.917,3.379,11.771,11.771,0,0,0,0,9.727,8.3,8.3,0,0,0,2.917,3.379,8.059,8.059,0,0,0,8.551,0Z"
      transform="translate(81.404 28.543)" fill="#2d2e2c" class="svg-elem-5"></path>
    <path id="Path_22" data-name="Path 22"
      d="M147.305,84.776a2.474,2.474,0,0,1-1.689.638H127.6a8.884,8.884,0,0,0,2.841,5.991,8.683,8.683,0,0,0,6.062,2.251,9.542,9.542,0,0,0,4-.714,10.086,10.086,0,0,0,2.712-1.846,2.89,2.89,0,0,1,1.485-.457,1.947,1.947,0,0,1,1.461.614,2.012,2.012,0,0,1,.59,1.432,2.525,2.525,0,0,1-1.028,1.946,12.022,12.022,0,0,1-3.94,2.508,12.976,12.976,0,0,1-5.02,1.023,14.836,14.836,0,0,1-7.295-1.742,12.112,12.112,0,0,1-4.863-4.863,14.435,14.435,0,0,1-1.713-7.067,15.526,15.526,0,0,1,1.765-7.547,12.778,12.778,0,0,1,4.659-4.992,12,12,0,0,1,12.368-.052,12.821,12.821,0,0,1,4.6,4.659,13.228,13.228,0,0,1,1.794,6.657A2.193,2.193,0,0,1,147.305,84.776ZM130.564,76.33a7.908,7.908,0,0,0-2.765,4.992h15.1v-.409a6.271,6.271,0,0,0-2.436-4.459,7.7,7.7,0,0,0-4.939-1.737A7.91,7.91,0,0,0,130.564,76.33Z"
      transform="translate(119.359 28.934)" fill="#2d2e2c" class="svg-elem-6"></path>
    <path id="Path_23" data-name="Path 23"
      d="M135.029,78.9a2.195,2.195,0,0,0-1.613-.638h-3.607V70.526a2.406,2.406,0,0,0-.695-1.742,2.281,2.281,0,0,0-1.713-.719,2.352,2.352,0,0,0-1.765.719,2.421,2.421,0,0,0-.69,1.742v7.738h-3.612a2.242,2.242,0,0,0-1.613.614,2.119,2.119,0,0,0-.638,1.589,2.181,2.181,0,0,0,2.251,2.251h3.612V103.27a2.4,2.4,0,0,0,.69,1.737,2.281,2.281,0,0,0,1.718.719,2.335,2.335,0,0,0,1.765-.719,2.4,2.4,0,0,0,.69-1.737V82.718h3.607a2.234,2.234,0,0,0,1.613-.614,2.094,2.094,0,0,0,.642-1.585A2.191,2.191,0,0,0,135.029,78.9Z"
      transform="translate(105.072 20.875)" fill="#2d2e2c" class="svg-elem-7"></path>
    <g id="Group_16" data-name="Group 16" transform="translate(116.739 62.512)">
      <path id="Path_24" data-name="Path 24"
        d="M229.4,76.569a6,6,0,0,0-3.131.9c-8.137-9.275-21.79-14.956-36.28-14.956-14.609,0-28.114,5.658-36.246,14.956a6.146,6.146,0,0,1,1.142.871,6.146,6.146,0,0,0-1.142-.871,5.883,5.883,0,0,0-6.167-.052,6.041,6.041,0,0,0-1.232.923,6.041,6.041,0,0,1,1.232-.923,33.208,33.208,0,0,0-24.926-11.249,33.552,33.552,0,0,0-24.474,10.74,5.957,5.957,0,0,1,2.265,1.351,30.655,30.655,0,0,1,45.245.88,6.032,6.032,0,1,0,10.488,5.82,6.044,6.044,0,0,0,0-4.7,5.831,5.831,0,0,0-.571-1.042c7.647-8.789,20.472-14.143,34.386-14.143,13.8,0,26.767,5.382,34.41,14.152a6.038,6.038,0,1,0,5-2.655ZM154.1,82.608a3.481,3.481,0,0,1-6.962,0,3.416,3.416,0,0,1,.4-1.585,3.5,3.5,0,0,1,1.727-1.623,3.444,3.444,0,0,1,1.351-.271,3.5,3.5,0,0,1,3.25,2.265A3.438,3.438,0,0,1,154.1,82.608Z"
        transform="translate(-90.237 -62.512)" fill="#75c339" class="svg-elem-8"></path>
      <path id="Path_25" data-name="Path 25"
        d="M102.549,65.466a6.053,6.053,0,1,0,4.269,1.77.831.831,0,0,0-.1-.081,5.957,5.957,0,0,0-2.265-1.351A6.039,6.039,0,0,0,102.549,65.466Zm2.475,3.6a3.476,3.476,0,1,1-2.475-1.037l.038,0A3.455,3.455,0,0,1,105.023,69.064Z"
        transform="translate(-96.51 -51.409)" fill="#75c339" class="svg-elem-9"></path>
    </g>
  </g>
</svg>
