<svg xmlns="http://www.w3.org/2000/svg" width="24" height="24" viewBox="0 0 311 337" fill="none">
<path fill-rule="evenodd" clip-rule="evenodd" d="M41 0C37.6863 0 35 2.68652 35 6V13V145H28C21.8934 145 16.2433 146.955 11.6416 150.273H11.1673L11.2614 150.552C4.4256 155.657 0 163.812 0 173V262C0 277.464 12.536 290 28 290H35V324V329V331C35 334.313 37.6863 337 41 337H267H274C277.314 337 280 334.313 280 331V324V290H283C298.464 290 311 277.464 311 262V173C311 157.536 298.464 145 283 145H280V101C280 100.831 279.993 100.663 279.979 100.497C280.432 98.1392 279.996 95.6089 278.563 93.4507L219.79 4.96729C218.181 2.54492 215.652 1.09961 212.973 0.787109C212.096 0.286133 211.082 0 210 0H209H194H48H41ZM261 145V105.203L260.97 105.203L194.17 105.625C191.162 105.644 188.657 103.446 188.205 100.561C188.071 100.063 188 99.54 188 99V19H54V145H261ZM54 290V318H261V290H54ZM261 181.273V195.548H253.037H239.367V212.273V223V226.548V254H222.037V226.548V223V212.273V195.548H208.367H202.691H199.949V181.273H208.367H222.037H224.744H230.419H230.949H239.367H253.037H261ZM154.362 254H171.691V226.548V223V212.273V195.548H185.362H191.037H193.744V181.273H185.362H171.691H168.949H163.273H162.744H159.539H154.362H140.691H132.273V183.112V188.944V195.548H135.203H140.691H154.362V196.619V212.273V223V226.548V254ZM106.79 182.451L102.79 195.548L101.273 200.516L97.6061 212.527L94.4084 223L90.947 234.336L90.8849 234.54H90.2812L90.2192 234.336L86.7578 223L83.5601 212.527L74.3766 182.451L74.017 181.273H54.3438L56.1812 186.719L64.8032 212.273L65.0488 213L70.1835 228.219L73.9941 239.513L74.2246 240.196L75.8758 245.09L78.8821 254H90.2812H90.8849H102.284L105.29 245.09L106.942 240.196L107.172 239.513L110.983 228.219L111.546 226.548L116.117 213L116.363 212.273L122.006 195.548L124.985 186.719L126.822 181.273H107.149L106.79 182.451Z" fill="#7E7E7E"/>
</svg>