<svg width="302" height="74" viewBox="0 0 302 74" fill="none" xmlns="http://www.w3.org/2000/svg">
<rect x="1.74304" y="37" width="10" height="28" rx="5" fill="#DE121E"/>
<rect x="54.743" y="37" width="10" height="28" rx="5" fill="#DE121E"/>
<rect y="13.7883" width="9.28878" height="47.8414" rx="4.64439" transform="rotate(-43.4609 0 13.7883)" fill="#DE121E"/>
<rect x="60.6431" y="7.90002" width="9.28878" height="47.8414" rx="4.64439" transform="rotate(45.05 60.6431 7.90002)" fill="#DE121E"/>
<rect x="116.169" y="21.3336" width="4.16633" height="11.6664" rx="2.08316" fill="#DE121E"/>
<rect x="138.251" y="21.3336" width="4.16633" height="11.6664" rx="2.08316" fill="#DE121E"/>
<rect width="3.87012" height="19.9329" rx="1.93506" transform="matrix(0.725823 -0.687882 0.687837 0.725865 115.443 11.6622)" fill="#DE121E"/>
<rect width="3.87013" height="19.9329" rx="1.93507" transform="matrix(0.706467 0.707746 -0.707702 0.706512 140.709 9.2088)" fill="#DE121E"/>
<rect x="85.743" width="3" height="74" rx="1" fill="#DE121E"/>
<rect x="153.743" y="10" width="4" height="23" rx="2" fill="#DE121E"/>
<rect x="217.743" y="10" width="4" height="16" rx="2" fill="#DE121E"/>
<path d="M201.743 24L202.717 26.2715C203.061 27.0764 203.612 27.7765 204.312 28.3019L207.243 30.5" stroke="#DE121E" stroke-width="4.2"/>
<rect x="199.743" y="10" width="4" height="16" rx="2" fill="#DE121E"/>
<rect x="209.021" y="32.3288" width="4.2336" height="4.26076" rx="2.1168" transform="rotate(179.719 209.021 32.3288)" fill="#DE121E"/>
<rect x="199.74" y="25.4554" width="2.45497" height="2.21817" rx="1.10909" transform="rotate(-89.5605 199.74 25.4554)" fill="#DE121E"/>
<path d="M220.018 24L219.044 26.2715C218.699 27.0764 218.149 27.7765 217.448 28.3019L214.518 30.5" stroke="#DE121E" stroke-width="4.2"/>
<rect width="4" height="16" rx="2" transform="matrix(-1 0 0 1 222.018 10)" fill="#DE121E"/>
<rect width="4.2336" height="4.26076" rx="2.1168" transform="matrix(0.999988 0.00489579 0.00489579 -0.999988 212.74 32.3288)" fill="#DE121E"/>
<rect width="2.45497" height="2.21817" rx="1.10909" transform="matrix(-0.00767127 -0.999971 -0.999971 0.00767127 222.021 25.4554)" fill="#DE121E"/>
<rect x="214.743" y="53" width="4" height="12" rx="2" fill="#DE121E"/>
<rect x="233.743" y="42" width="4" height="12" rx="2" fill="#DE121E"/>
<rect x="213.255" y="43.7013" width="4.38764" height="31.3045" rx="2.19382" transform="rotate(-44.5111 213.255 43.7013)" fill="#DE121E"/>
<rect x="185.743" y="20" width="4" height="10" rx="2" fill="#DE121E"/>
<rect x="179.737" y="23.9849" width="4" height="10" rx="2" transform="rotate(-89.8267 179.737 23.9849)" fill="#DE121E"/>
<rect x="182.991" y="31.9947" width="4" height="4.607" rx="2" transform="rotate(-89.8267 182.991 31.9947)" fill="#DE121E"/>
<rect x="185.618" y="32.7724" width="4.06532" height="6.3159" rx="2.03266" transform="rotate(-133.415 185.618 32.7724)" fill="#DE121E"/>
<rect x="182.569" y="14.9934" width="4" height="4.42854" rx="2" transform="rotate(-89.8267 182.569 14.9934)" fill="#DE121E"/>
<rect x="185.758" y="12.8146" width="3.38979" height="4.42854" rx="1.6949" transform="rotate(-0.815881 185.758 12.8146)" fill="#DE121E"/>
<rect x="189.971" y="14.4016" width="4" height="6.02945" rx="2" transform="rotate(129.872 189.971 14.4016)" fill="#DE121E"/>
<rect x="177.223" y="32.7676" width="4" height="4.21547" rx="2" transform="rotate(-147.861 177.223 32.7676)" fill="#DE121E"/>
<rect x="176.153" y="15.8663" width="4.15936" height="4.05102" rx="2.02551" transform="rotate(-125.409 176.153 15.8663)" fill="#DE121E"/>
<path d="M176.743 13L176.3 13.2398C175.981 13.4127 175.682 13.62 175.407 13.8578L173.931 15.1373C173.653 15.3784 173.402 15.6494 173.183 15.9455L172.283 17.1652C171.876 17.7159 171.587 18.3442 171.433 19.0111L171.045 20.6901C170.847 21.5481 170.879 22.4432 171.138 23.2849L171.479 24.3918C171.603 24.7957 171.778 25.1821 172 25.5419L172.892 26.9921C173.3 27.6549 173.857 28.2133 174.519 28.6229L176.743 30" stroke="#DE121E" stroke-width="4.2"/>
<rect x="261.569" y="46.9934" width="4" height="4.42854" rx="2" transform="rotate(-89.8267 261.569 46.9934)" fill="#DE121E"/>
<rect x="264.758" y="44.8146" width="3.38979" height="4.42854" rx="1.6949" transform="rotate(-0.815881 264.758 44.8146)" fill="#DE121E"/>
<rect x="268.971" y="46.4016" width="4" height="6.02945" rx="2" transform="rotate(129.872 268.971 46.4016)" fill="#DE121E"/>
<rect width="4" height="4.42854" rx="2" transform="matrix(0.00302389 0.999995 0.999995 -0.00302389 261.569 60.0143)" fill="#DE121E"/>
<rect width="3.38979" height="4.42854" rx="1.6949" transform="matrix(0.999899 0.0142393 0.0142393 -0.999899 264.758 62.1932)" fill="#DE121E"/>
<rect width="4" height="6.02945" rx="2" transform="matrix(-0.641074 -0.767479 -0.767479 0.641074 268.971 60.6062)" fill="#DE121E"/>
<rect x="256.223" y="64.7676" width="4" height="4.21547" rx="2" transform="rotate(-147.861 256.223 64.7676)" fill="#DE121E"/>
<rect x="255.153" y="47.8663" width="4.15936" height="4.05102" rx="2.02551" transform="rotate(-125.409 255.153 47.8663)" fill="#DE121E"/>
<path d="M255.743 45L255.3 45.2398C254.981 45.4127 254.682 45.62 254.407 45.8578L252.931 47.1373C252.653 47.3784 252.402 47.6494 252.183 47.9455L251.283 49.1652C250.876 49.7159 250.587 50.3442 250.433 51.0111L250.045 52.6901C249.847 53.5481 249.879 54.4432 250.138 55.2849L250.479 56.3918C250.603 56.7957 250.778 57.1821 251 57.5419L251.892 58.9921C252.3 59.6549 252.857 60.2133 253.519 60.6229L255.743 62" stroke="#DE121E" stroke-width="4.2"/>
<rect x="286.223" y="64.7676" width="4" height="4.21547" rx="2" transform="rotate(-147.861 286.223 64.7676)" fill="#DE121E"/>
<rect x="285.207" y="47.9424" width="4.25264" height="4.05102" rx="2.02551" transform="rotate(-125.409 285.207 47.9424)" fill="#DE121E"/>
<path d="M285.743 45L285.3 45.2398C284.981 45.4127 284.682 45.62 284.407 45.8578L282.931 47.1373C282.653 47.3784 282.402 47.6494 282.183 47.9455L281.283 49.1652C280.876 49.7159 280.587 50.3442 280.433 51.0111L280.045 52.6901C279.847 53.5481 279.879 54.4432 280.138 55.2849L280.479 56.3918C280.603 56.7957 280.778 57.1821 281 57.5419L281.892 58.9921C282.3 59.6549 282.857 60.2133 283.519 60.6229L285.743 62" stroke="#DE121E" stroke-width="4.2"/>
<rect width="4" height="4.21547" rx="2" transform="matrix(0.846758 -0.531978 -0.531978 -0.846758 292.986 64.7676)" fill="#DE121E"/>
<rect width="4.26506" height="4.05102" rx="2.02551" transform="matrix(0.579414 -0.815033 -0.815033 -0.579414 293.994 47.9525)" fill="#DE121E"/>
<path d="M293.466 45L293.909 45.2398C294.228 45.4127 294.528 45.62 294.802 45.8578L296.278 47.1373C296.556 47.3784 296.807 47.6494 297.026 47.9455L297.926 49.1652C298.333 49.7159 298.622 50.3442 298.776 51.0111L299.164 52.6901C299.362 53.5481 299.33 54.4432 299.071 55.2849L298.73 56.3918C298.606 56.7957 298.431 57.1821 298.209 57.5419L297.317 58.9921C296.909 59.6549 296.352 60.2133 295.691 60.6229L293.466 62" stroke="#DE121E" stroke-width="4.2"/>
<rect x="232.743" y="10" width="4" height="23" rx="2" fill="#DE121E"/>
<rect x="240.743" y="10" width="12" height="4" rx="2" fill="#DE121E"/>
<rect x="240.743" y="20" width="9" height="4" rx="2" fill="#DE121E"/>
<rect x="240.743" y="29" width="12" height="4" rx="2" fill="#DE121E"/>
<rect x="187.343" y="43.3068" width="4.38764" height="26.588" rx="2.19382" transform="rotate(-32.5219 187.343 43.3068)" fill="#DE121E"/>
<rect width="4.38764" height="17.5785" rx="2.19382" transform="matrix(-0.860471 -0.509499 -0.509499 0.860471 189.277 50.6855)" fill="#DE121E"/>
<rect x="180.743" y="56" width="11" height="4" rx="2" fill="#DE121E"/>
<rect x="148.743" y="42" width="4" height="23" rx="2" fill="#DE121E"/>
<rect x="156.743" y="61" width="12" height="4" rx="2" fill="#DE121E"/>
<rect x="116.743" y="42" width="4" height="23" rx="2" fill="#DE121E"/>
<path d="M123.743 51H132.743C133.848 51 134.743 51.8954 134.743 53V53C134.743 54.1046 133.848 55 132.743 55H123.743V51Z" fill="#DE121E"/>
<rect x="123.743" y="42" width="11" height="4" rx="2" fill="#DE121E"/>
<rect x="131.537" y="41.9742" width="3.43904" height="3.79022" rx="1.71952" transform="rotate(1.48725 131.537 41.9742)" fill="#DE121E"/>
<rect x="129.867" y="51.1005" width="5.07601" height="3.89202" rx="1.94601" transform="rotate(0.0893311 129.867 51.1005)" fill="#DE121E"/>
<path d="M132.743 44V44C134.512 44.5897 135.664 46.2951 135.55 48.1564L135.483 49.2461C135.38 50.9248 134.311 52.3904 132.743 53V53" stroke="#DE121E" stroke-width="4.2"/>
<path d="M123.743 54.9746H132.743C133.848 54.9746 134.743 54.0792 134.743 52.9746V52.9746C134.743 51.8701 133.848 50.9746 132.743 50.9746H123.743V54.9746Z" fill="#DE121E"/>
<rect width="11" height="4" rx="2" transform="matrix(1 0 0 -1 123.743 63.9746)" fill="#DE121E"/>
<rect width="3.43904" height="3.79022" rx="1.71952" transform="matrix(0.999663 -0.0259545 -0.0259545 -0.999663 131.537 64.0004)" fill="#DE121E"/>
<rect width="5.07601" height="3.89202" rx="1.94601" transform="matrix(0.999999 -0.00155912 -0.00155912 -0.999999 129.867 54.8741)" fill="#DE121E"/>
<path d="M132.743 61.9746V61.9746C134.512 61.3849 135.664 59.6796 135.55 57.8183L135.483 56.7285C135.38 55.0498 134.311 53.5842 132.743 52.9746V52.9746" stroke="#DE121E" stroke-width="4.2"/>
<rect x="261.743" y="10" width="4" height="23" rx="2" fill="#DE121E"/>
<rect x="269.743" y="29" width="12" height="4" rx="2" fill="#DE121E"/>
</svg>
